<svg xmlns="http://www.w3.org/2000/svg" width="922" height="1800"><path fill="#FDFDFD" d="M0 0h922v1800H0z"/><path d="M519.969 22.918c3.016-.043 6.016-.001 9.031.082.941.017 1.882.034 2.852.05 7.073.35 12.039 2.497 18.148 5.95l3.313 1.438c3.443 2.002 5.61 4.22 7.687 7.562 13.773 26.454 13.398 60.948 14.229 90.099l.093 2.77q.086 2.552.135 5.107c.18 5.18 1.205 9.56 2.796 14.482 1.258 4.282 1.796 8.625 2.337 13.046l.377 2.99c1.41 11.778 2.004 23.6 2.596 35.444.581 25.293.581 25.293 6 49.812l.784 2.235c5.276 14.614 12.04 28.012 20.118 41.267 3.558 5.896 6.323 11.503 8.547 18.03 1.526 4.2 3.712 7.881 5.988 11.718l17-4-4.125-4.875c-10.236-12.595-15.506-25.797-18.266-41.732-1.111-7.27-1.014-14.557-.922-21.893l.032-4.775c.121-12.643.857-25.16 2.281-37.725l.325-2.886q.7-6.157 1.428-12.311c3.318-28.185 5.784-56.423 7.793-84.729.387-5.37.875-10.72 1.454-16.074q3.749-.977 7.5-1.937l2.11-.553c11.557-2.943 22.186-3.323 33.843-.596 11.53 3.53 20.368 11.527 28.547 20.086 3.147 3.56 6.087 7.248 9 11 2.98 3.684 5.99 7.342 9 11l2.484 3.055c5.02 6.103 10.28 11.754 15.953 17.257 6.252 6.098 11.475 12.556 16.579 19.625 3.118 4.309 6.474 8.4 9.859 12.5 12.162 14.906 12.162 14.906 13.25 21.188.347 7.654-2.141 15.632-5.074 22.645-1.243 2.322-2.63 4.332-4.547 6.146-1.826 1.77-3.194 3.396-4.504 5.584-.782 3.883-.75 7.674-.687 11.625.046 10.55.046 10.55-1.684 14.523C762 269 762 269 759.625 270c-2.625 0-2.625 0-5.312-1.187C752 267 752 267 750.75 265.188c-2.147-6.262-1.764-12.52-1.59-19.043L749 243l-2-3c-2.202-.482-2.202-.482-4.77-.434l-2.926-.033-3.116.03-3.154.014c-9.572.183-17.491 1.982-26.034 6.423 1.668 4.772 3.93 7.498 7.55 10.95 11.932 9.99 27.407 14.24 42.45 17.05 8.029 1.297 16.103 2.315 24.166 3.375 2.775.367 5.549.745 8.322 1.125l2.536.322c5.366.741 10.006 1.99 14.976 4.178 1.832 2.293 1.832 2.293 3 5l1.387 2.988c3.559 9.096 4.922 17.25 3.613 27.012-1.584 3.298-2.638 4.741-5.625 6.875-4.408 1.47-7.871.956-12.375.125v2c-5.281-.515-8.572-2.255-13-5v-2l-5-1v-2l-2.187-.437c-1.686-.338-3.37-.68-5.051-1.036-9.828-1.876-19.783-2.7-29.762-3.214l-2.64-.147c-7.907-.358-14.737.6-22.36 2.834l-2.45.328c-2.649.364-5.024.785-7.55 1.672-1.64 1.475-1.64 1.475-2.937 3.313-3.004 4.002-6.214 5.7-10.778 7.652-2.56.806-4.787 1.332-7.414 1.726l-2.159.328q-2.108.29-4.23.466c-2.28.22-2.28.22-5.482 1.515-4.227 5.048-5.197 12.235-6.5 18.5-1.404 6.749-3.032 12.5-6.5 18.5l-2 1c-1.005-3.015-1.103-5.042-1.062-8.187l.027-2.731L658 357l-5 1v-4h-3l-1.187 3.688a413 413 0 0 1-4.313 12.187l-1.219 3.305c-1.188 2.615-1.977 4.14-4.281 5.82h-3c-.329-6.512-.066-11.87 2.266-17.984.956-2.626 1.38-5.252 1.734-8.016h-2l-.687 1.875L636 357l-2.437.813L631 359c-6.839 11.398-5.513 27.88-6 40.75-.619 16.215-1.335 32.38-5 48.25h-3c-1.832-8.993-2.314-17.65-2.25-26.812l.005-2.022c.039-12.457.87-24.785 2.245-37.166l-1 1c-.397 2.18-.743 4.37-1.062 6.563l-.536 3.628L614 396l-3-1a67 67 0 0 1-2.187-7.062l-.538-2.01c-.436-1.64-.857-3.284-1.275-4.928l-1 2h-4l.07 2.266.055 2.984.07 2.953c-.196 2.817-.75 4.406-2.195 6.797l-3-1c-.95-2.066-.95-2.066-1.687-4.562l-.762-2.504L594 388l-3 1 .496 2.137c.521 2.96.603 5.674.567 8.676l-.028 2.957L592 405l-5-1v-2h-2c-2.436-7.497-3.411-14.123-3-22h-2l-.387 3.473c-.551 4.39-1.412 8.66-2.426 12.964l-.524 2.24c-1.328 5.441-3.115 10.318-5.663 15.323-2.419-.525-3.81-.844-5.75-2.437L564 410v-2h-2l-1.25-2.812c-1.464-3.204-1.464-3.204-3.812-4.688L555 399a117 117 0 0 1-2-6l-.156 2.367c-1.77 18.056-8.35 35.36-14.969 52.133l-1.197 3.052c-3.298 8.113-7.644 15.292-12.365 22.635-2.196 3.478-3.8 6.992-5.313 10.813h-2c-.209-7.345.44-14.355 1.438-21.625C520.05 449.93 520.693 437.538 521 425l-.547 1.785a1029 1029 0 0 1-2.578 8.152l-.86 2.807C514.91 444.27 512.093 449.512 508 455l-1.56 2.254L505 459h-2c.223-9.585 2.945-18.016 6-27h-2l-.875 1.938L505 436l-2 1c-1.085 2.283-1.982 4.615-2.902 6.969L499 446l-3 1c-2.043-8.173-.672-15.763.758-23.926L497 420l-2-3-2 5h-4v-3l-6 1c-.96-2.882-1.106-4.699-1.062-7.687l.027-2.45L482 408l-3 1c-1.2 2.49-1.2 2.49-2.121 5.574l-1.147 3.463-1.17 3.65c-5.019 15.566-5.019 15.566-10.597 21.465l-2.027 1.786-2.036 1.84L458 448l-3-1c1.172-6.395 3.086-11.895 5.781-17.812 2.981-7.796 3.58-15.462 3.844-23.75l.117-3.057q.14-3.69.258-7.381l-1.137 3.508-1.55 4.617-.74 2.305c-1.75 5.135-3.741 8.695-7.573 12.57h-2l-1-3-.918 3.438c-4.24 15.412-4.24 15.412-9.082 21.562h-2c-.745-3.958-1.104-7.644-1.027-11.668l.037-3.209q.053-3.282.117-6.562c.073-7.088-.587-13.64-2.127-20.561h-1l-.41 1.59c-3.805 13.693-9.91 26.602-16.436 39.18-1.275 2.464-2.533 4.937-3.79 7.41-5.282 10.312-10.745 20.3-17.364 29.82l-1.41 2.043a604 604 0 0 1-4.465 6.332l-1.408 2.005c-1.164 1.598-2.433 3.117-3.717 4.62h-3v-4h2l.397-1.762c1.012-3.756 2.756-7.167 4.416-10.675l1.177-2.497c3.65-7.583 7.761-14.87 12.023-22.122l1.483-2.53 1.318-2.22c1.264-2.34 2.244-4.71 3.186-7.194h-3l1-5h-2l-1 4h-2l-.184-2.082-.253-2.73-.247-2.708c-.25-2.607-.25-2.607-1.316-5.48l-3-2 1-5h-2l-.312 1.68c-2.914 9.832-11.494 18.382-18.747 25.277-1.591 1.413-3.26 2.739-4.941 4.043h-2c2.587-8.257 2.587-8.257 4.563-11.812 3.609-8.004 3.789-17.52 4.437-26.188l-2-1-.516 3.473-.734 4.59-.332 2.279c-.878 5.338-2.49 9.103-5.418 13.658l-3-1c-.435-11.067.774-21.173 3-32l-1.54 3.438c-7.182 15.801-7.182 15.801-12.46 21.562l-1.543 1.695L353 428h-2c-.561-6.455 1.365-11.154 4-17l-2.172 2.184C339.368 426.588 324.69 438.623 307 446h-2c.466-5.707 1.938-9.16 5-14l-1.555 1.363c-10.652 8.95-22.677 16.238-35.382 21.887l-2.024.908c-1.647.697-3.342 1.28-5.039 1.842l-3-1 2.082-1.723c5.985-4.904 5.985-4.904 10.043-11.34L276 441l-6-2c1.097-6.655 3.191-11.791 6.625-17.562q1.36-2.37 2.71-4.743l1.363-2.382c6.03-10.717 10.945-21.826 15.302-33.313h-2l-.738 1.7c-2.575 4.695-6.626 8.41-10.262 12.3l-1.656 1.82c-11.492 12.137-26.804 22.542-41.219 30.864-2.041 1.264-3.81 2.624-5.625 4.191L232 434h-2c1.5-4.15 3.541-7.699 5.875-11.437l2.055-3.31c1.982-3.115 4.01-6.19 6.07-9.253l-1.61 1.277-2.14 1.66-2.11 1.653c-2.1 1.384-3.683 1.973-6.14 2.41 1.873-8.116 7.964-13.909 13.438-19.875 4.637-5.068 8.635-10.497 12.562-16.125-3.648 2.978-6.992 5.874-10 9.5-19.135 22.389-44.841 40.029-72.082 50.906C174 442 174 442 171 442c1.487-4.476 3.958-7.863 6.875-11.5l1.464-1.845c4.812-5.98 9.996-11.586 15.26-17.166 9.748-9.953 9.748-9.953 17.401-21.489h2l.85-1.756c1.09-2.127 2.27-4.127 3.54-6.15l1.394-2.239 1.466-2.355c4.327-7.002 8.278-14.029 11.75-21.5l-1.293 1.145q-2.044 1.8-4.102 3.585a491 491 0 0 0-4.099 3.6c-14.8 13.182-14.8 13.182-24.287 15.287L197 380c2.093-5.888 5.547-9.688 10-14 2.855-2.39 5.814-4.642 8.772-6.902 7.102-5.46 13.642-11.322 18.228-19.098l-1.469 1.32C217.138 354.997 199.025 363.913 179 369c-5.712.81-11.282.637-17 0v-2c7.277-4.232 14.737-7.761 22.453-11.107 3.716-1.616 7.366-3.286 10.973-5.135C199 349 199 349 201 349v-2l-3.143 1.114a9846 9846 0 0 1-11.786 4.166q-2.529.892-5.056 1.789A1643 1643 0 0 1 164 360l-2.288.786a575 575 0 0 1-6.43 2.14l-3.686 1.22c-4.072.967-7.429 1.006-11.596.854v-4c9.039-10.47 27.223-15.1 39.58-19.866 10.279-3.997 20.53-8.154 29.71-14.357L212 325h2v-2l-1.902.899c-25.938 12.207-50.788 22.168-79.848 22.351-1.207.03-1.207.03-2.437.063-4.92.03-9.237-.575-14.008-1.793-7.321-1.819-14.415-2.002-21.93-2.082q-3.847-.052-7.695-.13l-3.384-.037C80 342 80 342 77 340v-2c5.745-3.427 11.88-4.42 18.375-5.75C117.456 327.502 138.24 320.909 159 312l2.538-1.083C175.588 304.845 187.2 296.776 199 287c-3.294.633-5.525 1.85-8.316 3.684-6.518 3.996-13.5 6.68-20.621 9.378l-2.076.794C150.329 307.582 133.874 311.668 115 313v-2c10.201-5.355 20.6-9.343 31.563-12.875 9.73-3.142 19.308-6.49 28.75-10.437l2.886-1.201c5.205-2.22 10.137-4.685 15.013-7.558C195 278 195 278 197 278l-1.242-2.309-1.633-3.128-1.617-3.06c-3.81-8.851-3.828-17.457-3.758-27.003l.011-2.02c.144-21.677 3.158-40.806 14.044-59.828 6.592-11.12 14.063-21.61 22.195-31.652l1.333-1.65c6.175-7.57 12.767-14.753 19.542-21.787l2.162-2.318c1.913-1.946 3.718-3.695 5.963-5.245 3.23-.152 3.23-.152 6 1 5.377 2.893 9.321 7.02 12.688 12.063 14.19 24.247 19.11 53.524 25.32 80.631.872 3.797 1.767 7.587 2.672 11.376l1.382 5.868.618 2.557c1.07 4.624 1.516 8.758 1.32 13.505h2l.044-1.715C307.518 191.293 318.466 138.895 336 90l.788-2.22C341.679 74.184 348.22 59.954 359 50c2.888-1.444 5.491-1.263 8.684-1.207C370 49 370 49 373.312 50.063c2.767 1.994 4.367 3.848 5.885 6.91 3.672 9.268 3.029 19.218 2.923 29.003a1573 1573 0 0 0-.064 8.75q-.033 6.247-.077 12.496c-.2 29.694-.39 59.373 1.334 89.028l.179 3.233c.744 13 2.22 25.703 4.508 38.517l.545 3.088a5855 5855 0 0 0 5.121 28.641c2.367 13.052 4.582 26.092 6.147 39.267l.375 3.09c.805 7.223 1.535 14.663.812 21.914-1.407 2.609-2.446 3.358-5 5h-2v2l15 1-1-5c.34-2.219.34-2.219.938-4.5 1.708-7.864 2.05-15.898-.188-23.687a78 78 0 0 0-2.84-7.231c-2.524-5.651-3.646-10.52-3.43-16.746.563-3.068 1.395-4.816 3.207-7.336A78 78 0 0 1 409 274l2.313-2.375c3.719-2.249 7.45-2.883 11.687-3.625l.47-1.671c1.87-6.455 4.095-12.751 6.4-19.06 14.503-39.689 20.698-81.247 27.317-122.831l.474-2.966q1.126-7.055 2.187-14.12c2.522-16.42 6.131-32.544 10.222-48.636.778-3.108 1.49-6.221 2.184-9.349 1.078-4.325 2.234-7.642 4.746-11.367 4.424-3.742 9.567-6.026 14.908-8.158 1.857-.748 3.674-1.593 5.483-2.451 7.598-3.54 14.303-4.244 22.578-4.473"/><path d="m467.5 485.438 2.5.562c3.365 3.597 5.138 7.232 6.914 11.797l.77 1.976c2.575 6.713 4.808 13.535 7.012 20.376C494.968 551.91 508.418 580.83 532 605l1.938 2.125c4.111 4.395 8.69 8.032 13.5 11.625l1.844 1.395c4.641 3.38 9.425 5.668 14.718 7.855q2.305.995 4.605 2l2.291 1 2.292 1 2.326 1c5.18 2.272 10.198 4.558 14.129 8.753C591 644 591 644 591.387 646.783c-.08 8.01-1.22 15.255-3.074 23.03-3.221 14.315-5.043 28.686-6.663 43.259l-.293 2.557a468 468 0 0 0-.521 4.786c-.214 1.87-.517 3.73-.836 5.585l-2 2c-2.84.12-4.363-.066-7-1-10.937-6.267-19.459-16.155-28.187-25.062a4377 4377 0 0 0-6.807-6.899q-2.104-2.128-4.198-4.267a190 190 0 0 0-12.11-11.277c-12.609-11.101-18.3-26.838-23.608-42.237-1.799-5.333-3.54-10.679-5.152-16.07l-.618-2.062C489.396 615.9 489 613.4 489 610h-2c-.09 1.753-.09 1.753-.184 3.541-.382 7.338-.765 14.676-1.193 22.012-1.447 24.808-2.177 49.602-2.623 74.447l2-1c3.826-.3 6.704-.093 10.375 1.063 8.633 4.134 15.64 11.559 22.625 17.937 17.037 15.447 34.52 28.773 57 35 3.802.82 7.62 1.478 11.482 1.939 3.401.447 5.508 1.055 8.381 2.983 2.709 2.634 3.894 4.48 5.137 8.078.828 8.54-.932 16.431-2.937 24.688q-.832 3.504-1.653 7.011l-.773 3.29a72 72 0 0 0-1.203 7.78L593 822c-3.579 1.79-7.486 1.38-11.422 1.336-7.973-.749-14.573-4.44-21.14-8.836-7.414-5.651-13.638-13.044-18.63-20.898L540 791h-2l.5 3.125c.893 7.368 1.874 15.91-.5 23.063-2 2.812-2 2.812-3.664 3.925-3.659 1.655-7.028 2.1-11.024 1.887-3.182-.526-4.446-1.093-7.187-3-2.713-3.83-4.082-7.432-5.125-12-.29-3.846-.197-7.648-.062-11.5.223-7.233-.075-13.482-1.938-20.5-5.05-.938-5.05-.938-10 0-1.266 3.799-1.162 7.373-1.168 11.332l-.01 2.51q-.007 2.639-.007 5.278c-.002 2.644-.02 5.288-.04 7.933-.07 20.7 2.921 40.937 12.995 59.31 4.317 7.333 9.93 13.44 17.105 18.074 10.263 5.556 21.823 8.563 33.496 8.563 20.457-1.115 39.492-6.983 57.737-16.062 1.99-.987 3.991-1.952 5.994-2.915 6.23-3.028 12.058-6.041 17.71-10.086 2.857-1.885 4.647-2.877 8.06-3.253 6.711.446 11.977 2.394 17.69 5.879 7.576 7.575 10.558 17.414 13.301 27.527 2.704 10.939 1.217 21.182-1.863 31.91-2.583 7.75-5.63 14.67-10.062 21.563C662.056 955.957 659.11 969.5 658 984c-.218 13.865 3.942 26.366 8.813 39.188q1.494 4.01 2.972 8.027l.787 2.135c23.787 64.764 42.536 131.73 57.82 198.978q.911 4.005 1.83 8.007c5.418 23.732 10.374 47.537 14.418 71.544.34 2.005.692 4.007 1.045 6.01 3.069 17.81 3.48 34.977 3.28 52.994-.525 51.879 7.525 103.39 15.363 154.539l.467 3.065.436 2.828.379 2.461c.355 2.21.355 2.21.934 4.282.698 2.973.514 5.904.456 8.942h2l-.5-3.312c-2.898-23.41 1.211-46.858 9.5-68.688h3l.297 3.84c.74 12.7.74 12.7 5.703 24.16 1.99 2.659 1.99 2.659 5 4 5.18 1.32 9.944 1.285 15.125 0 6.397-2.229 10.42-6.262 14.867-11.223 12.847-15.37 22.383-34.15 26.66-53.77 1.078-9.322 1.652-19.923-1.605-28.835-4.127-8.563-10.048-15.066-17.7-20.629-8.87-5.83-18.152-8.98-28.347-11.543l.84 3.691 1.097 4.871.553 2.424c2.764 12.312 4.418 25.94 1.791 38.432-1.399 3.729-3.128 6.388-5.593 9.52-3.193 2.45-5.827 3.884-9.688 5.062-4.099.127-7.438-.784-11.25-2.25-3.046-1.938-4.769-3.742-6.75-6.75-1.599-5.16-1.495-10.38-.498-15.658a254 254 0 0 1 2.248-8.53l.825-3.054a819 819 0 0 1 5.663-19.918c2.238-8.343 2.939-17.706 1.301-26.242-1.252-3.6-3.172-6.594-5.226-9.785-10.74-17.59-14.974-39.1-20.313-58.813-10.08-37.012-22.065-73.243-34.68-109.462-31.65-90.867-31.65-90.867-24.807-126.76 1.593-7.277 4.712-13.27 9.303-19.075C708 1037 708 1037 710.79 1036.488c4.146.661 7.137 2.437 10.586 4.7l2.099 1.345c7.298 4.79 14.008 10.258 20.664 15.893a535 535 0 0 0 5.23 4.355c13.789 11.414 26.469 23.962 39.132 36.594l1.862 1.854c6.435 6.413 12.769 12.829 18.638 19.771q1.53 1.735 3.07 3.465c16.478 18.67 31.695 38.812 43.93 60.535l1.258 2.21c9.234 16.355 16.514 33.364 16.992 52.415-.232 9.025-2.189 16.448-6.406 24.469-3.515 5.54-8.003 9.99-13.434 13.652C852 1279 852 1279 849 1279c1.08-2.768 2.22-5.488 3.438-8.2 5.835-13.027 7.543-24.581 6.562-38.8-.635-4.8-1.664-9.35-3-14l-.96-3.344c-5.227-16.161-14.573-30.423-25.04-43.656l-1.25-1.601c-11.793-14.968-25.648-28.915-41.05-40.149a257 257 0 0 1-5.263-4.004C770.647 1116.2 756.91 1106.356 742 1104c11.42 71.492 32.321 142.48 78 200 3.185 3.806 6.582 7.404 10 11a510 510 0 0 1 3.688 4.25c3.274 3.76 6.704 7.31 10.312 10.75l2.25 2.188c2.68 1.766 4.846 2.571 7.875 3.562 7.52 2.611 13.439 6.826 19.063 12.43 12.45 14.444 17.627 33.308 21.24 51.642.572 3.053 1.089 6.11 1.572 9.178l.547 3.324c2.215 17.968-.435 35.29-3.26 53.002l-1.224 7.677c-1.562 9.958-2.471 19.939-3.063 29.997l-.25 3.947c-2.781 36.565-2.781 36.565 4.25 72.053 5.191 16.013 5.191 16.013 4 24-1.125 3.438-1.125 3.438-3 6-2.71 1.936-4.873 2.855-8.18 3.281-3.802.154-6.578-.196-10.195-1.468-2.915-2.014-4.115-3.635-5.625-6.813-1.156-3.467-1.065-6.068-.992-9.723l.05-4.072q.045-3.186.113-6.37c.174-8.314.178-16.068-3.171-23.835-2.023-3.323-4.228-5.328-7.437-7.437L855 1551c-3.014.783-4.726 1.741-6.992 3.883l-1.883 2.242-2.105 2.46L842 1562c-4.326 5.132-8.866 10.02-13.562 14.813l-1.644 1.708c-3.916 3.948-7.676 6.461-13.032 8.21-7.291 1.606-13.69 2.008-20.95.019-5.738-1.916-9.942-4.635-14.062-9.062-2.82-3.412-3.87-6.379-4.75-10.688h-2l.81 2.95q1.492 5.437 2.98 10.874l1.29 4.7q.928 3.384 1.854 6.769l.58 2.11c1.532 5.613 2.647 10.771 2.736 16.597l.078 3.063C782 1617 782 1617 780.68 1619.77c-2.145 2.848-4.474 3.766-7.68 5.23-1.121 1.906-1.121 1.906-1.09 3.863.424 6.82 2.15 12.9 4.153 19.387 2.613 8.614 4.442 16.696 2.937 25.75-1.481 2.963-2.602 4.682-5.187 6.75-3.603 1.601-6.858 2.386-10.813 2.25-2.993-1.264-4.587-2.542-6.75-4.937-2.244-3.703-2.457-7.35-2.562-11.626.022-6.763 1.292-13.01 2.889-19.549 1.25-5.267 2.13-10.47 1.423-15.888l-.941-1.757c-1.28-2.712-1.742-5.21-2.26-8.165-.323-1.806-.323-1.806-.65-3.648q-.346-1.983-.688-3.965l-.733-4.137q-.78-4.402-1.55-8.807-1.21-6.907-2.437-13.81l-.41-2.311-.817-4.611q-.613-3.452-1.223-6.905a3762 3762 0 0 0-6.604-36.259l-.473-2.534q-1.6-8.547-3.214-17.091l-1.013-5.374A24501 24501 0 0 0 729 1480c-.896 5.395-1.174 10.614-1.203 16.078l-.021 2.639q-.025 4.266-.026 8.533l-.002 2.984c.02 17.857 1.106 35.394 2.976 53.14.897 8.54 1.76 17.083 2.62 25.627.333 3.268.68 6.534 1.03 9.8 1.038 9.952 1.854 19.853 1.958 29.863l.05 2.596c-.012 3.86-.315 6.56-1.681 10.22L733 1644c-2.703 1.253-4.917 2.076-7.75 2.813l-2.094.615c-4.343 1.237-8.65 2.148-13.156 2.572-2.687-1.062-2.687-1.062-5-3-6.698-8.94-8.22-20.644-9.57-31.51l-.43-3.803-.241-2.045c-1.625-13.807-2.69-27.658-3.759-41.517-2.133-27.658-4.57-54.911-10.363-82.082-5.456-26.079-8.292-52.538-11.29-78.986q-.483-4.245-.971-8.491c-7.09-61.85-12.671-123.882-17.749-185.927a7125 7125 0 0 0-1.709-20.471c-2.687-31.736-5.158-63.488-7.614-95.242l-1.19-15.331a43106 43106 0 0 1-1.615-20.826q-.24-3.077-.476-6.154-.222-2.882-.45-5.763c-.321-4.147-.609-8.285-.762-12.442-.233-5.93-.469-11.194-2.842-16.707-2.97-7.189-2.479-14.662-2.469-22.317-.001-12.33-.11-24.596-2.312-36.761l-.465-2.599c-1.2-5.914-3.082-11.591-5.723-17.026l-2-2c-1.874-.481-1.874-.481-4.053-.686l-2.548-.303-2.778-.3-2.882-.329c-3.1-.348-6.2-.68-9.302-1.007l-3.182-.342c-19.575-2.08-38.481-3.152-58.079-.757-16.736 1.952-34.395 2.364-50.176-4.213-7.1-3.492-13.015-7.896-18-14.063-14.153-22.078-16.702-51.408-17.923-76.925-.267-7.167-.226-14.342-.202-21.513l.007-2.676c.1-33.954.1-33.954 2.075-49.98q.556-4.546 1.106-9.093l.281-2.331c1.816-15.432 1.99-30.727 1.771-46.25-.322-23.036 1.206-45.796 3.26-68.732l.677-7.712c1.288-14.656 2.602-29.31 4.047-43.95 2.82-28.961 4.93-58.953-4.242-86.938l-.81-2.548-.755-2.256C459 494 459 494 459.822 491.87c2.077-3.294 3.776-5.553 7.678-6.432M321 963.625l3.04-.074c7.267-.028 13.402 1.25 19.96 4.449 4.209 2.867 7.76 6.113 10.5 10.438 2.598 6.514 2.462 13.704 1.5 20.562-1.693 7.06-4.193 13.904-6.5 20.78-5.837 15.939-5.837 15.939-7.328 32.584 1.405 6.423 4.148 11.839 7.577 17.408 3.784 6.74 4.339 15.398 4.626 22.978-.23 6.44-1.334 12.725-4.594 18.355-2.5 3.258-5.271 5.436-8.906 7.332-5.583 2.168-10.976 2.301-16.875 1.563-3.703-.833-6.791-1.962-10-4-3.449-3.299-5.495-6.83-7.375-11.187-1.805-11.01-.253-20.378 3.562-30.72 1.917-4.932 4.06-9.76 6.262-14.57 2.713-6.163 4.067-11.231 3.93-17.964-.22-2.813-.22-2.813-2.504-5.559-4.57-3.179-8.203-5.053-13.75-5.687A211 211 0 0 0 300 1030c-23.59 43.13-30.571 94.842-37 143l-.272 2.039c-5.228 39.457-8.206 79.197-9.728 118.961l-.089 2.27c-1.835 47.403-2.894 95.966 3.711 143.033.369 2.63.7 5.264 1.026 7.9 1.541 11.682 4.064 23.802 9.68 34.274L269 1483c4.67.867 9.576.559 14.203-.508 2.88-1.09 4.753-2.444 6.828-4.703 6.412-9.084 7.549-21.386 8.965-32.129l.52-3.945c1.971-15.42 2.95-30.909 3.897-46.42q.308-4.952.626-9.902c1.766-27.679 3.193-55.37 4.505-83.073.49-10.262 1.098-20.514 1.755-30.766.471-7.447.876-14.894 1.232-22.347l.135-2.806q.33-6.843.637-13.687l.232-4.929.098-2.302c.254-5.256.254-5.256 1.367-7.483l-2.09.438c-8.525 1.683-15.373 2.62-23.723-.188-3.974-1.445-6.387-3.07-9.187-6.25-1.813-3.082-2.252-6.044-2.5-9.562.094-5.671 2.284-9.927 4.895-14.872 1.448-2.316 2.52-3.844 4.605-5.566 7.275-2.285 15.066-2.338 22.625-2.312l2.945-.05c6.304-.004 11.653.765 17.43 3.362 3.693 2.234 6.337 5.093 8.875 8.563 3.935 12.024 2.202 26.566 2.104 39.08a3069 3069 0 0 0-.041 7.794l-.026 2.325c-.02 4.51.202 8.941.583 13.436.58 7.076.667 14.107.646 21.204l-.004 2.01c-.033 15.069-.637 30.102-1.387 45.15l-.2 4.146C336.69 1385.642 331.742 1444.5 324 1503l-.268 2.043c-2.085 15.846-4.683 31.483-8.732 46.957l-.68 2.646c-1.392 5.067-2.899 8.759-6.32 12.854-3.84 4.987-5.766 9.36-7 15.5l-.687 3.313c-.776 9.146-.277 17.717 1.23 26.757 1.02 6.543.56 12.203-1.488 18.524-1.64 3.739-3.947 6.76-7.055 9.406-4.094 1.365-7.719 1.493-12 1-4.339-1.376-7.953-3.713-11.375-6.687-2.123-2.371-3.171-4.343-3.937-7.43-1.056-5.272.069-9.29 1.687-14.32 2.961-9.626 2.961-9.626 2.625-19.563-1.478-3.342-2.967-5.224-5.883-7.414a198 198 0 0 0-4.562-2.965c-16.96-10.762-30.357-24.245-40.184-41.777-2-4.148-3.33-8.366-4.371-12.844h-2l.656 2.055c1.907 6.374 3.212 12.28 2.344 18.945-1.125 2.938-1.125 2.938-3 5-3.125 1.75-3.125 1.75-6 3l-1 1c-.758 7.252.666 13.477 2.938 20.313 2.305 7.194 4.205 13.566 4.312 21.187l.078 3.344c-.328 3.156-.328 3.156-1.71 5.953C210 1612 210 1612 207.874 1613.75c-3.932 1.71-7.586 2.367-11.875 2.25-2.875-1.062-2.875-1.062-5-3-2.713-4.554-3.869-8.453-4.312-13.687.023-4.684 1.148-8.996 2.312-13.5 2.005-7.772 2.46-14.762 2-22.813l-3.687-.687c-3.038-.783-4.48-1.438-7.063-3.376-6.21-8.106-7.831-17.928-9.96-27.699-1.75-7.719-3.875-15.126-8.477-21.676-2.846-2.593-4.012-3.116-7.625-3.937A108 108 0 0 0 150 1505c-1.853 11.116-.758 20.55 3.125 31.125 6.308 15.65 14.881 30.001 23.49 44.472 3.366 5.84 3.366 5.84 3.51 10.153L180 1594c-6.842 3.193-14.56 6.58-22.25 5.938-4.178-1.045-7.403-2.265-10.75-4.938-7.138-6.915-12.191-14.716-17.062-23.312l-2.19-3.8c-2.27-3.95-4.513-7.917-6.748-11.888l-1.108-1.967A1677 1677 0 0 1 105 1527l-1.291-2.381c-11.839-22.011-19.93-45.836-27.129-69.697q-.86-2.843-1.726-5.683C69.655 1432 65.982 1414.905 64 1397l-.31-2.615c-1.01-9.866-.876-19.793-.875-29.7-.002-3.15-.02-6.3-.04-9.45-.05-17.5 1.193-34.538 4.538-51.735l.671-3.492c.654-3.34 1.329-6.675 2.016-10.008l.525-2.574C77.7 1253.346 91.427 1219.488 106 1188l1.625-3.547c1.77-3.828 3.568-7.642 5.375-11.453l1.313-2.779c5.744-12.14 11.606-24.183 17.933-36.03a909 909 0 0 0 6.29-12.039c.31-.604.621-1.21.942-1.832l1.923-3.74c5.336-10.37 10.76-20.68 16.394-30.891 2.293-4.162 4.554-8.331 6.713-12.564 5.58-10.933 11.871-21.143 18.668-31.359 3.373-5.115 6.655-10.288 9.949-15.454 10.418-16.304 10.418-16.304 14.848-23.096a665 665 0 0 0 7.449-11.7l1.77-2.81a503 503 0 0 0 3.395-5.461l1.565-2.468 1.375-2.21L225 977h4c2 3 2 3 2.322 4.89 1.561 41.25-8.234 83.506-14.678 124.053-16.16 101.018-16.16 101.018-27.957 202.62l-.246 2.643c-1.653 17.876-2.624 35.723-3.066 53.669l-.067 2.7c-.361 15.179-.325 30.266.692 45.425l.151 2.43c.748 11.028 3.094 21.571 5.603 32.32a204 204 0 0 1 3.809 21.813c1.678 13.755 5.434 26.546 10.557 39.401 1.13 2.853 1.88 4.933 1.88 8.036h2l-.805-3.812-1.07-5.188-.527-2.484c-2.705-13.221-3.89-26.56-4.66-40.016l-.237-3.738c-1.498-25.228-1.906-50.506-1.89-75.774q.002-3.242.001-6.484c.01-30.15.808-60.244 2.058-90.368q.176-4.25.34-8.503c3.34-84.059 10.268-176.506 51.79-273.633l1.127-2.013C264.106 990.972 273.965 978.384 288 970c10.355-5.338 21.512-6.36 33-6.375M393 960a66 66 0 0 1 4 1c1.489 1.436 1.489 1.436 2.883 3.29l1.582 2.078 1.66 2.257 1.744 2.333c5.318 7.174 10.366 14.49 15.131 22.042l1.369 2.164c24.074 38.37 40.668 79.684 50.631 123.836l.573 2.525c1.291 5.8 2.41 11.621 3.427 17.475l.507 2.913c11.649 68.972 4.986 137.734-2.804 206.72-1.035 9.206-.654 17.233.84 26.379.536 3.505.825 6.46.457 9.988-1.25 2.813-1.25 2.813-3 5-2.08 1.263-3.698 1.957-6.113 2.3-3.775.02-7.185-.142-10.762-1.425-3.125-1.875-3.125-1.875-5-4.625-3.166-9.147-1.276-17.259.51-26.552.88-4.348 1.764-8.696 2.685-13.036 1.473-7.315 1.967-14.206 1.68-21.662l-2-1-.155 2.619c-.521 8.083-1.422 16.005-2.658 24.006-3.776 25.658-6.29 51.404-8.375 77.25l-.256 3.154A1563 1563 0 0 0 440 1452l-.171 2.534c-1.167 18.176-1.016 36.404-1.014 54.61q0 5.443-.02 10.887c-.12 32.077.76 63.959 4.517 95.844l.326 2.838c1.898 16.533 4.209 32.94 7.362 49.287l.69 3.584c3.07 15.624 6.909 30.89 11.65 46.09.688 2.425 1.197 4.848 1.66 7.326q-8.56.112-17.12.165-2.903.022-5.804.061c-13.173.174-26.18.2-38.576-4.914-4.445-2.58-7.727-6.005-10.5-10.312-6.197-13.294-5.089-27.781-4.625-42.062q.068-2.322.133-4.643c.21-7.197.451-14.391.748-21.585.66-16.158.944-32.288.932-48.46v-3.716c-.019-26.86-.727-53.736-3.639-80.458-.548-5.05-1.081-10.102-1.611-15.154l-.276-2.62L384 1485l-.17 2.886q-.81 13.773-1.625 27.544-.433 7.312-.862 14.625c-2.268 38.712-2.268 38.712-3.343 52.433-1.592 20.448-2.283 40.803-2.31 61.312q-.004 2.967-.014 5.936c-.026 17.552.082 34.406 5.262 51.326l.763 2.64c1.138 3.848 2.354 7.564 3.99 11.232C387 1718 387 1718 387 1721c-12.413.462-23.182.26-35-4a835 835 0 0 0-4.68-1.531c-3.828-1.247-7.655-2.493-11.453-3.83-1.572-.538-3.169-1-4.77-1.444L329 1709c-5.665-11.451-3.07-28.93-2.66-41.246l.066-2.011c.501-14.945 1.524-29.844 2.68-44.752q.252-3.257.499-6.514a3280 3280 0 0 1 6.294-71.984c.96-9.787 1.89-19.577 2.815-29.368q.788-8.354 1.579-16.707l1.292-13.686c2.32-24.595 4.791-49.17 7.435-73.732l.252-2.338q1.375-12.777 2.761-25.552c1.615-14.89 3.209-29.78 4.8-44.672l.254-2.38q4.291-40.135 8.38-80.293c1.287-12.628 2.59-25.252 4.01-37.867 1.92-17.079 3.667-34.176 5.418-51.273l.53-5.177c2.825-27.56 5.536-55.126 8.066-82.714q.635-6.888 1.295-13.775C388.04 1028.68 390.51 994.342 393 960"/><path d="M433 477c3.074-.5 3.074-.5 6 0 2.946 1.405 4.93 3.5 7 6 4.487 7.402 6.43 15.569 8 24l.486 2.44c1.714 9.23 2.197 18.453 2.639 27.81l.126 2.591c2.69 55.937-2.55 110.691-10.65 165.992a1533 1533 0 0 0-5.476 41.417l-.313 2.625q-.438 3.695-.867 7.39l-.248 2.11c-1.224 10.768-1.839 21.501-1.943 32.336l-.1 7.215q-.071 5.563-.13 11.127c-.388 34.733-2.432 69.963-20.243 100.775A356 356 0 0 1 409 924l-1.207 1.965c-2.124 3.292-3.557 4.9-7.035 6.89l-3.633 1.332-1.998.734A220 220 0 0 1 389 937l-3.543 1.156c-33.426 9.794-68.053 5.776-102.075 2.1q-3.342-.36-6.684-.708c-9.884-1.035-19.758-2.098-29.6-3.478l-3.152-.437c-5.074-1.09-8.932-3.409-12.946-6.633-8.14-7.427-13.098-15.928-16.441-26.367C211.198 891.637 209.15 881.56 210 870c1.012-4.146 2.878-6.774 5.73-9.89 5.293-5.03 10.987-8.062 18.063-9.794 2.397-.49 4.793-.915 7.207-1.316l.33-2c11.695-67.853 49.591-127.466 90.715-181.171C355.328 635.632 355.328 635.632 373 602h-2l-1 3c-3.713 2.16-7.346 2.3-11.536 2.38-8.998-.02-17.188-.395-25.464-4.38-3.991-2.477-6.87-5.163-9.336-9.172-2.392-4.92-3.079-9.424-3.664-14.828l1.902-1.095c35.068-20.225 65.094-40.195 89.57-72.871 2.998-3.99 6.055-7.934 9.118-11.874a240 240 0 0 0 5.039-6.851l1.33-1.835q1.258-1.74 2.468-3.514c1.151-1.573 1.151-1.573 3.573-3.96M548 947h2c15.077 31.369 20.167 67.795 25 102l.518 3.563c7.37 51.076 10.374 102.809 13.922 154.259l1.139 16.455.232 3.352q.676 9.79 1.339 19.582c1.437 21.195 2.988 42.37 4.96 63.523l.249 2.69c1.099 11.768 2.385 23.484 4.125 35.178.612 4.49.606 8.87.516 13.398h2l-.152-1.627c-1.896-20.806-2.809-41.647-3.72-62.514q-.194-4.444-.392-8.888c-1.454-32.88-2.686-65.758-3.563-98.66q-.212-7.774-.446-15.549c-1.17-39.166-1.93-78.316-1.973-117.5q-.006-4.235-.02-8.47c-.05-19.482.2-38.917 1.157-58.378l.117-2.465c.542-11.05 1.568-21.977 2.992-32.949l3-1c2.99 6.962 5.215 13.892 7 21.25l.78 3.202c9.211 38.56 11.674 78.52 15.627 117.886 2.149 21.399 4.39 42.785 6.771 64.16.634 5.723 1.229 11.449 1.806 17.178 1.58 15.494 3.637 30.672 6.66 45.964 2.124 10.787 3.865 21.61 5.481 32.485l.352 2.349c.872 5.838 1.706 11.68 2.523 17.526l.445 3.178c2.896 20.855 5.318 41.752 7.643 62.678q.588 5.28 1.18 10.558c1.837 16.384 3.657 32.77 5.404 49.164 3.09 28.972 6.61 57.858 10.554 86.727l.37 2.74q.439 3.201.903 6.4c1.217 8.624 1.999 17.219 2.517 25.906.137 2.31.282 4.618.427 6.927q.312 4.942.616 9.884c.53 8.551 1.08 17.101 1.64 25.65l.167 2.546c.92 13.981 1.987 27.943 3.322 41.892l.237 2.505c.688 7.18 1.442 14.342 2.398 21.492a168 168 0 0 1 1.49 22.94l.048 3.268.002 3.15.01 2.786c-.454 3.18-1.459 5.045-3.373 7.609-5.12 2.037-10.431 2.531-15.875 3.063l-2.277.236q-2.142.222-4.285.436-3.614.377-7.223.782l-2.461.274L650 1678c-1.69-15.94-2.672-31.866-3.437-47.875l-.381-7.735q-.398-8.093-.786-16.187-.39-8.118-.792-16.234c-1.47-29.746-2.83-59.492-3.905-89.255-.454-12.519-.97-25.032-1.566-37.544-1.31-27.562-2.213-55.137-3.125-82.714q-.236-7.123-.478-14.246l-.6-17.87q-.124-3.742-.25-7.484-.175-5.19-.345-10.382l-.103-3.042A509 509 0 0 1 634 1308c-3.471 42.22-4.597 84.504-5.46 126.844q-.06 2.868-.118 5.736l-.06 2.89c-1.287 62.897-1.287 62.897-2.8 93.967l-.168 3.606c-.597 12.54-1.503 25.01-2.867 37.492l-.364 3.34c-.744 6.453-1.77 12.78-3.163 19.125h-2c-7.804-20.71-14.257-41.634-20-63l-.558-2.07c-9.177-34.151-15.531-68.924-20.442-103.93-.11-.786-.22-1.573-.335-2.383-6.914-49.792-9.32-100.443-10.993-150.652-.605-17.713-1.95-35.327-3.672-52.965.44 35.63 1.14 71.212 2.849 106.808q.234 4.968.455 9.938C567.445 1412.524 573.38 1481.95 584 1551l.385 2.51c4.441 28.762 10.421 57.235 17.638 85.428l1.531 6.035c.97 3.821 1.971 7.633 2.992 11.44 2.254 8.648 3.906 16.944 4.013 25.907l.045 2.297c-.089 4.885-1.244 8.422-3.553 12.718-1.415 2.242-3.06 3.923-5.051 5.665-3.794 3.645-6.517 6.892-8 12-.684 3.83-.692 7.168 0 11 1.414 3.448 2.995 6.69 4.785 9.957C600 1739 600 1739 599.82 1742.247c-.82 2.753-.82 2.753-3.008 5.003-4.106 2.555-7.495 3.632-12.312 4.063-3.5-.313-3.5-.313-6.875-1.376L575 1748c-1.493-5.814-.526-10.354.938-16 1.623-6.387 2.981-12.238 1.375-18.812L576 1711l-2.402-.902C571 1709 571 1709 569.445 1707.328c-10.814-17.02-20.146-37.418-21.624-57.798a149 149 0 0 1 .679-21.442c.615-6.7.699-13.371.738-20.096l.015-2.122c.037-5.665.051-11.33.06-16.995l.005-2.624c.076-43.68-1.081-87.339-2.193-131.001l-.132-5.215c-.936-36.808-1.962-73.612-3.124-110.413a5926 5926 0 0 1-1.874-75.266l-.181-9.44q-.307-15.85-.603-31.697-.188-10.144-.395-20.29c-1.214-58.841-1.816-117.783.059-176.617l.119-3.807a1157 1157 0 0 1 1.979-40.044l.236-3.565c1.837-25.988 1.837-25.988 4.791-31.896M188 978h2c-.466 5.34-3.392 9.141-6.25 13.5q-1.658 2.58-3.312 5.16l-1.731 2.684c-15.38 23.927-29.335 48.571-42.277 73.89a391 391 0 0 1-3.965 7.457C108.573 1124.634 91.035 1172.792 78 1221l-.964 3.551C67.103 1261.58 59.87 1300.573 59.832 1339l-.01 3.627a3664 3664 0 0 0-.007 7.553c-.002 3.783-.02 7.565-.04 11.347-.033 14.283.486 28.295 2.225 42.473l.427 3.667C70.28 1471.545 95.264 1531.111 133 1583l1.256 1.754c9.871 13.65 24.35 22.927 38.744 31.246l1.99 1.16c32.4 18.642 68.506 25.497 104.796 32.07q4.331.789 8.66 1.584 2.974.538 5.95 1.057c18.434 3.349 18.434 3.349 25.604 8.129.524 2.271.524 2.271.73 5.094l.245 3.125.212 3.281.249 3.188c.228 3.103.41 6.204.564 9.312l.155 2.906.083 2.688.084 2.365c-.322 2.041-.322 2.041-1.64 3.812-.556.405-1.11.811-1.682 1.229-3.137.074-3.137.074-6.687-.312l-3.575-.364L306 1696c-3.854 14.268-3.984 27.781-1.457 42.309 1.036 6.102.47 10.924-1.633 16.675-.91 2.016-.91 2.016-2.723 4.454-2.777 1.983-4.824 2.864-8.187 3.562-4.448.07-7.945-.427-11.875-2.562-2.788-3.198-4.052-6.363-5.125-10.438a53.8 53.8 0 0 1-.992-11.914l.05-3.305q.067-3.418.157-6.836l.043-3.297.067-2.994c-.156-2.712-.156-2.712-1.67-4.975L271 1715c-2.81-.685-2.81-.685-6 0-2.64 1.157-5.015 2.633-7.437 4.188l-1.909 1.173a126 126 0 0 0-9.341 6.405C243 1729 243 1729 240.559 1729.629l-2.121-.066-2.13.003c-4.375-1.073-7.52-3.816-10.73-6.87-5.575-6.156-10.449-12.531-15.2-19.329-5.708-8.147-11.886-16.142-19.815-22.242-3.494-1.534-6.75-2.125-10.563-2.125-2.812.54-2.812.54-5 2-1.755 1.61-1.755 1.61-3 4-.401 3.565-.401 3.565-.25 7.438l.047 3.933A51.4 51.4 0 0 0 173 1705c.3 4.05.045 6.86-1.187 10.75-1.813 3.25-1.813 3.25-4.063 5.063-6.056 2.615-11.216 3.706-17.75 3.187-2.894-1.147-5.19-2.45-7.75-4.187-2.118-3.072-2.814-6.172-3.25-9.813.01-1.958.022-3.917.072-5.874.335-7.46.335-7.46-1.385-14.626-2-3.265-4.668-5-7.812-7.125-7.157-4.916-11.264-11.208-15.875-18.375l-1.638-2.513c-7.374-11.328-14.502-22.792-21.228-34.516a773 773 0 0 0-3.36-5.768C81.15 1609.808 75.483 1597.978 70 1586l-1.564-3.416C42.967 1526.476 25.963 1465.633 22 1404l-.261-3.902c-.736-11.598-.94-23.166-.927-34.785l.002-2.828c.048-27.089 2.05-53.692 6.186-80.485l.526-3.453C32.062 1249.47 39.41 1220.813 49 1193l1.144-3.371c5.77-16.956 12.385-33.355 19.856-49.629q1.026-2.28 2.05-4.562C89.63 1096.71 113.459 1059.41 141 1027l2.723-3.246c10.096-11.973 20.794-23.342 31.84-34.442l2.02-2.034c3.316-3.305 6.596-6.549 10.417-9.278"/><path d="M515.414 952.719c3.307 1.535 5.464 3.156 8.024 5.781 2.037 3.26 2.521 5.582 2.693 9.421-.021 7.359-.275 14.66-.782 22.001-.856 12.44-1.556 24.882-1.904 37.348l-.062 2.218c-.704 25.962-.58 51.941-.571 77.91v6.535c-.002 59.731.784 119.43 2.123 179.147q.121 5.467.238 10.935c1.99 92.719 5.225 185.568 15.827 327.985l.268 3.069c2.856 37.175 2.856 37.175 9.712 73.723.885 3.428 1.67 6.685 2.02 10.208-.873 3.008-2.34 4.72-4.562 6.875q-1.429 1.602-2.844 3.215L543 1732c-2.876 4.468-4.317 8.737-5 14q-.066 3.03.008 6.063l.05 3.414q.067 3.524.157 7.046c.108 8.62.108 8.62-1.598 13.141-2.07 2.99-3.378 4.581-6.617 6.336-5.818.921-10.991.282-16.5-1.75-2.735-1.119-4.26-1.976-6.219-4.203-1.65-2.636-2.263-4.683-2.414-7.79l.008-3.132-.008-3.117c.124-2.797.573-5.274 1.133-8.008.605-7.475.341-14.204-2.547-21.18-3.99-7.744-8.934-14.573-15.265-20.57-4.167-3.948-6.439-7.804-8.188-13.25-4.286-15.277-.065-33.137 2.422-48.372 1.007-6.322 1.887-12.662 2.765-19.003l.505-3.543.476-3.418.415-2.955c1.342-11.936 1.564-23.746 1.55-35.74q0-2.995.004-5.99.003-8.43-.008-16.863-.006-5.47-.008-10.94c-.029-57.006-.275-114.012-.511-171.018q-.048-11.381-.092-22.762c-.378-110.885-.378-110.885-2.86-221.74-.13-4.05-.251-8.101-.372-12.153-.701-23.296-1.63-46.562-3.06-69.826q-.299-4.895-.586-9.79a1489 1489 0 0 0-.952-14.762l-.177-2.564c-1.202-17.08-3.303-33.996-5.724-50.94A371 371 0 0 1 472 962c12.302-6.776 29.205-13.512 43.414-9.281"/><path fill="#FEFEFE" d="m439 1047 1.938-.125c2.062 1.125 2.062 1.125 4.187 4.25 4.066 7.292 4.562 15.486 5.438 23.625l.38 3.383c.366 3.288.712 6.577 1.057 9.867l.312 2.682c1.638 15.233.604 30.736-.062 46.005l-.129 2.98c-7.027 159.765-7.027 159.765-37.183 208.63-5.915 8.251-13.233 16.376-21.938 21.703-1.327.36-2.66.697-4 1-.223-18.274.433-36.5 1.146-54.757q.246-6.37.485-12.74.408-10.73.823-21.458.573-14.86 1.136-29.722c1.197-31.479 2.412-62.957 3.747-94.43a7150 7150 0 0 0 1.48-37.467l.19-5.108q.377-10.125.746-20.252.231-6.396.473-12.79.09-2.385.174-4.77.117-3.27.243-6.54l.136-3.727c.195-2.862.44-5.48 1.221-8.239 2-1 2-1 4.75-1.375 3.25.375 3.25.375 6.438 2.438 2.466 2.312 4.061 4.673 5.222 7.894 3.13 10.841 4.453 22.912 1.91 34.01a236 236 0 0 1-3.742 12.358c-2.476 7.528-4.534 15.444-3.082 23.39 1.054 3.83 2.166 5.947 5.004 8.785 2.815 1.689 4.93 2.457 8.207 2.703 4.58.07 8.463.06 12.856-1.328 3.04-2.34 3.954-4.35 5.437-7.875 1.438-9.357-.737-17.556-3.559-26.344-1.65-5.18-2.937-10.43-4.191-15.718l-.637-2.632c-3.06-12.965-4.967-28.374-1.3-41.369.803-2.352 1.555-3.783 3.171-5.675zM405 628h3a307 307 0 0 1 1.5 6l.844 3.375c2.607 14.872-.073 30.824-1.531 45.688l-.34 3.52C397.471 800.485 397.471 800.485 376 846l-1.488 3.227c-4.024 8.046-9.615 15.383-17.063 20.539-4.594 2.486-9.081 4.004-14.312 4.297-8.106-.238-15.287-3.99-22.137-8.063-4.558-3.295-8.122-6.518-11-11.375-2.855-10.349-1.511-19.364 1-29.625 6.637-25.5 18.73-49.52 29.571-73.428 13.453-29.678 26.406-59.418 36.991-90.26l.771-2.242c2.835-8.284 5.512-16.577 7.667-25.07h2c-1.089 9.256-2.347 18.475-3.727 27.691l-1.415 9.615q-.48 3.24-.977 6.475c-1.768 11.56-3.19 22.975-3.28 34.684l-.037 2.772c.058 6.34 1.327 11.796 3.436 17.763 4.104-.291 7.916-.614 11.813-2 3.76-3.438 5.248-8.092 6.789-12.863.555-2.98.53-5.857.523-8.887l.008-3.547c-.117-3.254-.466-6.393-.897-9.617-1.625-14.37-.003-29.168 1.139-43.524l.191-2.475q.28-3.542.582-7.083l.168-2.132c.405-4.534 1.322-8.555 2.684-12.872M156 1159h2l-.563 3.752c-4.583 30.674-8.706 61.35-11.437 92.248l-.253 2.862c-4.958 57.062-6.872 117.87 2.702 174.533.454 2.969.796 5.617.551 8.605-1.437 1.75-1.437 1.75-4 3-3.064.846-5.846 1.51-9 1-2.689-2.029-4.488-3.962-5.987-7-.936-2.333-1.771-4.68-2.576-7.062l-.9-2.576a742 742 0 0 1-1.75-5.075 231 231 0 0 0-2.053-5.674c-2.818-7.708-4.005-15.462-4.734-23.613l-.265-2.892c-.851-10.37-.936-20.709-.922-31.108l.002-2.8c.147-67.138 11.876-136.528 39.185-198.2M687 1233h2c41.88 112.177 41.88 112.177 36.25 152.188-.995 5.306-2.393 10.194-5.25 14.812-2.71 2.645-4.424 3.808-8 5-5.5.55-10.631.496-15.812-1.562-4.492-2.282-7.422-5.263-10.188-9.438-5.74-10.045-5.197-22.602-5.205-33.85.103-13.238 1.255-26.421 2.285-39.611 2.274-29.179 3.802-58.261 3.92-87.539M533 129h2l-.26 2.585a814 814 0 0 0-3.893 68.24q-.083 5.472-.17 10.946-.116 7.33-.197 14.66l-.101 6.862-.025 3.17c-.124 7.309-.577 14.18-4.042 20.725-3.9 4.742-7.746 8.47-13.562 10.687-6.18 1.752-12.206 1.983-18.46.469-4.448-1.55-7.68-3.332-10.853-6.844-1.966-2.45-2.912-4.4-3.437-7.5-1.609-21.442 6.954-42.932 16-62 9.19-18.692 19.712-36.791 31.758-53.785 2.24-3.11 2.24-3.11 3.922-6.149z"/><path fill="#FDFDFD" d="M550 288h3l-.048 2.472q-.076 4.629-.117 9.259a707 707 0 0 1-.099 5.906c-.063 8.266.848 15.463 3.264 23.363q.596 2.124 1.188 4.25L558 336l-1 1c-2.863.073-5.7.092-8.562.063l-2.444-.014q-2.997-.02-5.994-.049v2l-3.937-.062A59 59 0 0 0 532 339l-1 1c-3.891.687-7.827 1.093-11.75 1.563l-3.27.42c-6.426.777-12.66 1.077-19.128.996-4.902.027-9.781.272-14.676.529l-2.913.149c-4.01.206-8.019.416-12.027.64q-4.436.241-8.873.46l-2.761.165-2.542.121-2.237.122L449 345l-2-2 .839-1.905q1.232-2.806 2.46-5.615 1.395-3.18 2.819-6.348c2.947-6.541 2.947-6.541 4.921-13.413.84-3.699 1.448-5.862 3.961-8.719 5.536-2.516 11.79-2.903 17.763-3.584 5.958-.765 11.84-1.971 17.737-3.103q3.42-.634 6.844-1.262c2.765-.51 5.522-1.022 8.271-1.613 3.146-.578 6.194-.5 9.385-.438 2.633 4.367 3.352 7.76 3.521 12.73l.042 2.395c.048 5.78.048 5.78 1.289 11.371L528 325c2.823 1.096 2.823 1.096 6 1 2.928-.757 2.928-.757 5-3 .965-3.933 1.038-7.245.836-11.285-.386-9.322-.386-9.322 1.355-13.735 2.411-4.126 4.693-7.428 8.809-9.98"/><path fill="#FEFEFE" d="m652.25 228.688 3.328-.114c3.432.427 5.844 1.303 8.775 3.144 2.83 2.202 4.812 4.89 6.897 7.782q1.425 1.885 2.86 3.762l1.45 1.9C695.22 270.27 726.598 289.173 755 303c-2.534 1.267-4.628 1.011-7.41.936-9.464-.253-18.53.647-27.884 2.085l-2.82.42-2.493.397c-2.693.182-4.793-.124-7.393-.838a93 93 0 0 1-6.5-4.437c-.612-.45-1.225-.898-1.856-1.36A819 819 0 0 1 693 296l-1.675-1.241c-42.522-31.545-42.522-31.545-51.462-51.267-1.316-3.8-1.252-6.471-.863-10.492 3.7-3.956 8.062-4.198 13.25-4.312M717.313 157.25c5.335 1.085 9.252 3.673 13.687 6.75l1.797 1.23c4.155 3.138 7.136 7.021 9.203 11.77.669 3.049.46 4.777 0 8-2.696 5.659-5.789 8.997-10.75 12.75l-1.766 1.418c-4.183 3.239-8.348 5.485-13.484 6.832-3.195.328-3.195.328-6.125.25-.972-.015-1.944-.03-2.945-.047-2.93-.203-2.93-.203-5.711-.7-16.98-2.657-32.547.71-48.375 6.763L651 213c.167-5.18.7-9.05 3.313-13.562 3.47-5.386 7.4-10.448 11.29-15.534 2.823-3.71 5.407-7.401 7.71-11.466 2.589-4.516 5.606-8.183 9.687-11.438 2.938-1.437 2.938-1.437 5-2l1 1c.11 1.613.156 3.23.176 4.848l.072 3.025q.063 3.149.094 6.297c.134 4.889.4 8.994 2.533 13.447 1.897 3.456 1.897 3.456 4.813 5.446 4.35 1.23 7.916.748 12.312-.063 1.136-5.51.677-9.159-1-14.5-1.265-4.027-2.023-7.027-1.82-11.254.82-3.246.82-3.246 2.203-5.242 3.001-2.483 5.076-3.882 8.93-4.754"/><path fill="#FCFCFC" d="M257 188h2l.12 2.047c2.974 57.61 2.974 57.61 22.032 111.308C282 303 282 303 282 305c-7.293-2.276-14.162-5.18-21.125-8.312-8.377-3.746-16.758-7.315-25.375-10.47L233 285l-1-3c1.62-2.786 3.366-5.24 5.43-7.71 5.07-6.227 8.516-13.36 9.93-21.32.574-4.402.87-8.822 1.127-13.253.235-3.984.54-7.963.837-11.944l.17-2.339c.955-12.894 2.746-25.328 7.506-37.434"/><path fill="#FDFDFD" d="M336 219h2l-.124 2.512c-1.814 38.705 2.888 72.516 20.562 107.3C360 332 360 332 360 334c-15.795-3.552-31.09-8.683-46-15v-2l1.898-1.812c2.343-2.439 2.927-3.941 3.73-7.188 1.46-5.95 2.437-11.94 3.31-18l.503-3.381c.526-3.539 1.043-7.079 1.559-10.619a13110 13110 0 0 1 1.553-10.501l.51-3.437.503-3.4.973-6.56q.448-3.012.892-6.024.583-3.924 1.182-7.848l.332-2.261C331.868 230 333.559 224.514 336 219"/><path fill="#DBD9DA" d="m257 380 2 1c-4.86 6.505-9.793 12.935-15.125 19.063l-2.258 2.597c-2.737 2.447-5.22 3.685-8.507 5.221-3.767 1.998-6.881 4.798-10.11 7.557-10.814 9.177-10.814 9.177-16 11.562l-2-1 2.57-1.766C225.64 411.67 242.728 396.786 257 380"/><path fill="#E8E5E7" d="M201 347v2q-5.092 2.441-10.187 4.875l-2.909 1.395-2.822 1.347-2.587 1.238c-6.952 3.19-6.952 3.19-9.745 2.957L171 360l-1-3q5.895-2.145 11.798-4.272 2.007-.726 4.013-1.456 2.883-1.047 5.771-2.084l3.507-1.27C198 347 198 347 201 347"/><path fill="#A4A3A3" d="M407 438h2c-1.476 6.783-4.768 12.234-8.25 18.188-4.509 7.829-8.899 15.634-12.75 23.812l-2-2c6.266-13.652 12.647-27.47 21-40"/><path fill="#DBD9DA" d="M214 323v2a109 109 0 0 1-6.812 4.313l-2.058 1.212c-11.882 6.903-11.882 6.903-17.13 8.475-2.3-.383-2.3-.383-4-1l1-3c2.56-1.442 2.56-1.442 5.934-2.918l3.654-1.611 1.913-.824c1.93-.832 3.853-1.678 5.774-2.528C211.695 323 211.695 323 214 323"/><path fill="#9F9E9E" d="M753.422 302.02 755 303c-2.534 1.267-4.628 1.011-7.41.936-9.521-.254-18.648.662-28.06 2.085l-2.839.42-2.525.397C712 307 712 307 709 306l2-2c2.176-.502 2.176-.502 4.883-.852l3.016-.391 3.226-.382 3.272-.395c21.977-2.506 21.977-2.506 28.025.04"/><path fill="#DBD9DA" d="m199 285 2 1c-11.716 10.93-11.716 10.93-17 13-2.168-.191-2.168-.191-4-1l-1-3 1.836-.664c5.82-2.203 10.922-4.857 16.133-8.262z"/><path fill="#707171" d="M737 310c10.898-.207 21.271-.157 32 2v3l-2.902-.402c-10.022-1.345-20-2.123-30.098-2.598z"/><path fill="#E8E5E7" d="M231 356h2c-1.309 4.229-2.703 8.202-5 12-2.187.875-2.187.875-4 1l-1-3-8 7-2-1 1.33-1.146 5.982-5.166 2.092-1.803c1-.866 1-.866 2.022-1.748l1.856-1.603c1.744-1.513 1.744-1.513 3.316-3.23z"/><path fill="#D3D1D2" d="M325 322c7.953 1.348 15.472 3.607 23.125 6.125l3.477 1.129q4.2 1.365 8.398 2.746v2c-8.762-2.03-17.389-4.32-25.937-7.125l-2.385-.768c-1.914-.642-3.8-1.367-5.678-2.107z"/><path fill="#A4A3A3" d="M531 338v2c-4.02.507-8.041 1.004-12.062 1.5l-3.436.434c-5.54.678-10.92 1.26-16.502 1.066l1-2c1.99-.502 1.99-.502 4.594-.852l2.875-.39 3.031-.383 2.938-.406c5.907-.778 11.605-1.104 17.562-.969"/><path fill="#BAB7B9" d="M232 340h2c-2.631 5.806-7.12 10.207-11.687 14.563L220 356c-2.312-.25-2.312-.25-4-1v-2c1.723-1.262 1.723-1.262 4.063-2.687 4.067-2.6 7.275-5.44 10.527-8.993zM377 409l3 1q-.174 2.625-.375 5.25c-.07.975-.14 1.95-.21 2.953-.4 2.693-1.05 4.467-2.415 6.797h-3q.463-3.438.938-6.875l.527-3.867C376 411 376 411 377 409"/><path fill="#DBD9DA" d="m369 399 2 1-4 22h-2l.035-1.898c.01-.818.018-1.635.027-2.477l.036-2.46c.047-2.214.047-2.214-1.098-4.165a92 92 0 0 1 2.438-6.125l1.433-3.32zM436 409h3l-1 18h-2zM464 394l2 1c.081 1.437.14 2.874.188 4.313l.105 2.425L466 404c-1.387 1.793-1.387 1.793-3 3h-2q.465-2.408.938-4.812l.527-2.708C463 397 463 397 464 394"/><path fill="#BAB7B9" d="M214 323v2c-2.3 1.762-2.3 1.762-5.312 3.688l-2.989 1.949L203 332l-3-1 1-3c2.434-1.387 2.434-1.387 5.438-2.687l2.996-1.325C212 323 212 323 214 323"/><path fill="#DBD9DA" d="M650 354h3v3l-1.3 1.238c-2.479 2.57-3.564 5.692-4.888 8.95l-.826 1.982A777 777 0 0 0 644 374l-1-3a103 103 0 0 1 2.875-7.562l.855-2.077c1.03-2.486 2.066-4.953 3.27-7.361M294 381h2l-3 11h-3c-.645-1.766-.645-1.766-1-4 .926-1.922.926-1.922 2.313-3.75l1.363-1.86z"/><path fill="#BAB7B9" d="M353 411h2l-2 7-1.812.313c-2.276.55-2.276.55-3.938 2.25L346 422l-2-1 1.46-1.426c.633-.622 1.264-1.245 1.915-1.887l1.898-1.863c1.908-1.912 1.908-1.912 3.727-4.824M450 414l2 1c-.69 3.911-1.783 7.555-3.062 11.313l-1.098 3.238L447 432l-1-3a118 118 0 0 1 1.938-7.687l.591-2.127c.483-1.731.976-3.459 1.471-5.186"/><path fill="#DBD9DA" d="M638 353h2a853 853 0 0 1-.437 4.313l-.247 2.425C639 362 639 362 638 365h-2c.553-4.03 1.156-8.02 2-12"/><path fill="#BEB8BF" d="m369 399 2 1-1 7-4 1z"/></svg>