<svg xmlns="http://www.w3.org/2000/svg" width="922" height="1800"><path fill="#FDFDFD" d="M0 0h922v1800H0z"/><path d="M290.938 984.688c4.31 3.254 7.623 6.5 10.101 11.343 2.424 6.253 2.549 12.348 1.961 18.969-1.282 7.593-3.154 15.075-4.937 22.563q-.712 3.059-1.42 6.119c-.864 3.711-1.73 7.422-2.612 11.129l-.531 2.239c-.428 1.67-.955 3.314-1.5 4.95-.435 5.793.81 9.947 2.813 15.25 2.324 6.542 4 12.95 5.062 19.813l.363 2.303c1.42 9.992 1.104 19.429-2.488 28.947-2.648 4.066-5.898 6.663-10.125 9-3.626.95-6.933 1.218-10.625.687-3.043-.887-5.482-2.07-8-4-3.516-4.184-5.542-8.752-7-14-.3-3.48-.3-3.48-.312-7.187l-.051-3.668c.53-10.539 5.241-21.103 8.578-31.004 2.003-6.108 3.474-11.706 3.785-18.141-.887-3.848-.887-3.848-3-7-4.35-3.743-8.511-4.864-14-6l-.522 1.586a618 618 0 0 1-4.31 12.594c-11.496 32.785-16.677 67.47-21.168 101.82l-.496 3.783c-4.49 34.856-7.21 69.886-9.191 104.967l-.185 3.249c-.41 7.332-.781 14.666-1.128 22.001l-.15 3.078c-.928 19.564-1.038 39.117-1.035 58.698q0 5.268-.02 10.535c-.144 37.435-.027 76.26 7.143 113.127l.44 2.29c1.164 5.405 3.11 10.347 5.622 15.272l1 1c4.775.549 8.879.436 13.375-1.312 3.989-4.084 5.182-8.234 6.625-13.688 2.548-12.621 3.743-25.229 4.563-38.062l.341-4.987c.312-4.571.605-9.143.892-13.716q.216-3.423.437-6.847c1.353-20.965 2.358-41.931 3.175-62.924.252-6.43.513-12.859.773-19.288l.286-7.113q.734-18.255 1.596-36.5l.117-2.486q.285-6.022.577-12.044.408-8.477.81-16.955.713-15.039 1.433-30.078l-1.804.66-2.403.848-2.366.848c-3.96 1.05-7.49.61-11.427-.356-3.688-1.392-5.636-2.607-8.312-5.5-1.855-2.748-2.62-4.77-2.926-8.066-.18-7.28.749-12.993 4.238-19.434 1.34-2.203 1.34-2.203 3-4 7.89-3.008 17.716-2.615 26-2 4.174.951 7.498 1.861 10.75 4.688l1.672 1.386c2.242 2.736 3.575 5.562 4.578 8.926.458 3.669.488 7.314.512 11.008l.055 3.3c.055 3.606.088 7.211.12 10.817l.097 7.64c.09 7.402.149 14.803.201 22.206q.038 4.98.081 9.96c.25 31.66-.044 63.202-1.88 94.812q-.303 5.331-.593 10.663c-2.137 38.934-4.928 77.77-8.593 116.594-.09.96-.18 1.919-.271 2.907-1.631 17.452-3.508 34.836-6.229 52.156l-.574 3.711c-1.777 10.721-4.244 20.91-9.824 30.308-3.98 6.927-4.227 14.763-4.239 22.559l.012 2.734-.012 2.71c.008 5.02.256 9.913.898 14.893.908 7.687.153 14.794-2.761 22.022-1.904 2.718-4.008 4.504-7 6-3.325.399-5.97.428-9.098-.871-3.487-1.988-6.178-4.027-8.34-7.441-1.765-3.78-2.473-7.528-2.562-11.688.416-3.024 1.159-5.926 1.938-8.875 2.386-9.46 2.386-9.46 2.062-19.125-1.53-4.032-2.875-6.027-6.105-8.82a540 540 0 0 0-5.114-3.965c-14.242-11.342-24-25.893-30.656-42.777C190 1553 190 1553 190 1550h-2l.438 1.941c1.09 5.078 2.064 9.843 1.562 15.059-1.187 3.313-1.187 3.313-3 6-2.613 1.168-2.613 1.168-5 2-.658 8.703.29 16 2.5 24.375 2.314 8.896 3.827 17.422 2.5 26.625-1.324 2.82-1.324 2.82-3 5-3.312 1.875-3.312 1.875-7 3-3.25-.062-3.25-.062-6-1-1.79-1.992-2.881-3.66-3.766-6.191-1.647-8.066-.903-15.147.543-23.192l.42-2.367a263 263 0 0 1 .874-4.617c1.01-5.482.748-10.116-.071-15.633l-3.312-1.312c-2.89-1.146-4.666-2.314-6.688-4.688-3.987-9.059-5.436-18.865-7.066-28.553-1.367-7.65-3.084-14.647-7.809-20.947-2.662-1.88-4.934-2.048-8.125-2.5-.937 22.478 5.643 40.577 15.152 60.738l1.645 3.493a602 602 0 0 0 3.254 6.749c2.944 6.165 4.67 11.174 4.949 18.02a803 803 0 0 1-5.625 2.438l-3.164 1.37c-3.133 1.163-5.89 1.86-9.211 2.192-3.609-.984-5.861-2.058-8.719-4.422-5.628-5.781-8.808-13.073-12.197-20.283a530 530 0 0 0-3.322-6.877C92.838 1533.234 71.49 1475.473 67 1416l-.277-3.57c-.77-10.934-.966-21.846-.973-32.805l-.002-2.826c.092-80.986 27.747-155.9 58.252-229.799l.852-2.063q4.724-11.44 9.565-22.83c1.886-4.442 3.742-8.895 5.587-13.353a1897 1897 0 0 1 4.215-10.047q1.014-2.415 2.009-4.84c4.084-9.942 8.447-17.84 15.772-25.867a352 352 0 0 0 3.406-4.187 3128 3128 0 0 1 4.76-5.856c2.534-3.11 5.056-6.228 7.525-9.39l2.371-3.005 2.036-2.62C184 1041 184 1041 186.246 1040.214L188 1040c2.455 4.199 2.346 7.85 2.43 12.625l.007 3.75.005 1.977c-.04 23.616-2.994 47.19-5.442 70.648l-.336 3.224A5502 5502 0 0 1 180 1175c-5.331 47.556-10.328 95.132-13.687 142.875l-.185 2.588c-1.493 21.158-2.315 42.275-2.313 63.488-.002 3.35-.02 6.698-.04 10.047-.052 19.85.715 39.8 4.225 59.377l.5 2.953c.66 3.89 1.343 7.775 2.024 11.662a293 293 0 0 1 2.465 17.533c1.294 11.647 3.483 22.818 6.426 34.152.946 3.757 1.763 7.54 2.585 11.325h2l-.902-3.367c-1.729-7.794-2.064-15.814-2.66-23.758l-.381-4.844q-.464-5.92-.896-11.842-.224-3.03-.453-6.059c-.712-9.893-1.042-19.779-1.27-29.693l-.064-2.684c-1.195-52.335-.291-104.654 2.064-156.94l.093-2.1c.876-19.592 2.007-39.155 3.469-58.713l.23-3.083q.749-9.868 1.583-19.73l.251-2.984c1.684-19.776 3.966-39.446 6.651-59.109q.397-2.933.784-5.868C198.053 1098.38 205.335 1052.23 226 1015l1.742-3.29c3.91-7.114 8.528-12.97 14.258-18.71l1.777-1.812c4.477-4.214 9.324-6.534 15.223-8.188 10.541-2.27 21.98-3.346 31.938 1.688M255.298 505.913c30.959-1.079 62.481 6.446 89.854 20.923 20.082 11.054 38.71 26.334 50.93 45.897 2.428 4.025 4.688 8.13 6.918 12.267l1.434 2.547c9.529 17.693 12.1 37.892 11.902 57.684a633 633 0 0 0-.014 7.593c-.05 29.507-9.723 55.83-24.322 81.176-7.008 11.97-14.831 23.148-23.436 34.019a606 606 0 0 0-4.513 5.801c-4.79 6.202-9.71 12.19-15.016 17.965a257 257 0 0 0-5.347 6.027c-11.466 13.119-23.413 26.398-36.813 37.575a87 87 0 0 0-4.187 3.883c-5.913 5.718-10.893 8.363-18.688 10.73-12.354 4.171-24.51 8.992-34.246 17.977-3.873 4.467-6.977 9.867-8.395 15.625-1.755 11.714 1.944 23.145 5.465 34.226l.96 3.037a374 374 0 0 0 1.93 5.852c2.105 6.52 2.896 12.434 2.286 19.283-.977 3.663-2.12 5.983-4.594 8.84-5.131 4.974-10.571 7.322-17.406 9.16l-3.242.93c-3.393.774-6.278 1.213-9.758 1.07-3.987-1.673-6.85-4.076-10-7l-2.254-1.902c-4.307-3.88-7.23-7.765-9.121-13.27-1.721-7.788-1.336-14.982 1.04-22.558 2.178-6.228 5.06-11.924 8.21-17.708q1.604-3.018 3.203-6.039c.76-1.429.76-1.429 1.533-2.887 4.75-9.014 9.048-17.596 9.487-27.937-.188-4.346-1.307-7.592-3.535-11.324-3.672-5.039-8.294-8.162-13.563-11.375-.807-.354-1.613-.709-2.445-1.073-2.908-1.41-5.16-2.747-7.555-4.927-1.93-4.304-2.527-8.665-3.187-13.313-.346-1.967-.69-3.934-1.046-5.9q-.361-1.998-.709-3.998c-6.065-34.64-21.305-68.1-38.058-98.789l-1.811-3.32c-6.249-11.438-12.522-22.86-19.078-34.125-4.534-7.798-8.778-15.666-12.673-23.805l-1.23-2.563C108 638.934 108 638.934 108 633l-3.297 1.277C87.965 640.592 87.965 640.592 79 640c-4.007-.792-7.54-1.739-10.668-4.441-2.043-2.39-2.639-4.497-3.332-7.559.076-4.636.793-8.053 2.875-12.188 16.182-26.908 46.497-45.619 72.063-62.562l2.16-1.436c18.029-11.973 36.303-23.452 55.064-34.25l2.846-1.638 2.671-1.53c2.511-1.456 2.511-1.456 5.403-3.716 4.092-2.356 7.827-2.558 12.48-2.868l2.783-.222c2.884-.22 5.768-.41 8.655-.59l2.74-.175c6.85-.422 13.7-.653 20.558-.912M552 91c22.321-1.693 45.479 7.44 65.293 16.873 3.282 1.627 6.498 3.361 9.707 5.127l2.456 1.34C645.898 123.363 661.15 133.552 676 145l1.646 1.264c11.717 9.014 22.95 18.551 33.877 28.506a441 441 0 0 0 6.23 5.488c5.13 4.479 10.046 9.176 14.98 13.869 5.497 5.207 11.003 10.379 17.205 14.748 13.87 10.403 22.18 25.494 29.062 41.125 4.032 9.544 7.257 19.275 9.813 29.313l.59 2.311c3.153 13.101 3.847 25.795 3.405 39.221-.38 9.433-.38 9.433 2.149 18.39l1.093 1.994c1.353 2.521 1.743 4.94 1.95 7.771l-1 2c-4.764-.715-9.342-1.795-14-3-3.91 15.072-4.607 30.028-3.231 45.507.41 5.288-.203 9.41-1.769 14.493l-1.187 2c-1.813 1-1.813 1-5.188 1.5-3.625-.5-3.625-.5-6.437-2.562-2.52-3.385-3.268-5.823-4.188-9.938-.172-2.904-.102-5.781 0-8.687.277-5.518.277-5.518-1-10.833l-1-1.48c-2.298-.116-2.298-.116-5 1-6.912 6.604-9.6 16.24-12.844 24.95-10.102 27.06-10.102 27.06-18.281 35.425-2.376 2.589-2.376 2.589-3.875 5.625-.182 5.666 1.36 10.65 3 16q.685 2.471 1.36 4.945c5.533 19.806 13.015 39.327 26.64 55.055l2.047 2.48c2.228 2.612 4.54 5.079 6.953 7.52l2.176 2.234c5.491 4.782 10.463 6.375 17.505 7.84 3.174.61 6.352 1.199 9.53 1.785 9.25 1.735 17.888 4.543 25.2 10.696L815 555l2.5 2.125c1.624 3.113 1.886 4.96 2.063 8.438-.575 12.086-7.523 22.165-13.813 32.125l-2.219 3.568c-5.33 8.543-5.33 8.543-6.531 9.744-2.726.164-5.277.139-8 0l-3.305-.168c-10.619-.954-18.58-4.523-27.695-9.832l-2.55-1.473c-25.836-16.2-44.576-43.237-58.696-69.648-1.66-3.208-3.223-6.455-4.749-9.728-1.102-2.358-2.232-4.7-3.36-7.046-10.269-21.64-17.711-44.165-23.888-67.275-3.908-14.605-8.34-29.037-12.882-43.455l-.788-2.506c-2.635-8.372-5.281-16.712-8.419-24.913C642 373 642 373 642 371h-3l-.312 3.063c-.477 3.989-1.34 7.825-2.231 11.742-1.722 8.143-1.71 15.975-1.457 24.257.08 2.7.14 5.397.188 8.098l.105 3.551c-.335 3.76-1.36 6.068-3.293 9.289-3.356 3.607-6.248 5.321-10.937 6.813-13.476 3.19-26.682.84-39.75-2.856C578 433 578 433 576.758 431.122c-2.406-5.176-3.914-10.637-5.196-16.185l-.626-2.688C559.21 359.787 555.996 304.527 553 251l-.161-2.846c-1.867-33.395-2.023-66.78-2.027-100.216l-.001-3.16q-.005-9.108.015-18.218.006-2.804.007-5.606c.009-10.037.178-19.957 1.167-29.954"/><path fill="#656465" d="M657 449c2.5.313 2.5.313 5 2 4.499 5.65 6.454 11.857 8.25 18.75l.853 3.177c.799 2.999 1.581 6.002 2.359 9.006.58 2.23 1.171 4.458 1.763 6.685q1.624 6.122 3.206 12.256.63 2.434 1.273 4.864c.604 2.288 1.189 4.58 1.769 6.875l.56 2.084c.479 1.94.479 1.94.967 5.303-1.47 4.444-5 7.08-8.416 10.135-8.91 7.788-18.137 12.996-29.793 15.302-11.519 2.083-23.09 3.299-34.791 3.563l-3.521.083c-42.248.835-42.248.835-60.479-4.083l1.023 1.469c3.09 4.642 5.335 8.924 5.977 14.531.547 8.726.545 16.89-3 25-1.908 3.553-3.603 5.668-6.687 8.25-4.123 2.178-7.613 3.64-12.313 3.75-5.258-1.117-10.172-3.09-14.5-6.312-3.75-4.03-5.056-7.912-6.375-13.188-.73-7.136 1.674-14.875 3.453-21.727.793-3.332.936-6.412.422-9.773-1.288-3.571-2.734-6.942-5-10-2.078-.845-2.078-.845-4-1-8.157 12.849-12.29 25.257-12.983 40.506-.425 17.31 1.857 32.777 9.546 48.307l3.242 6.652 1.628 3.324c2.284 4.68 4.524 9.38 6.755 14.086.373.784.747 1.567 1.133 2.374 1.372 2.892 2.666 5.711 3.679 8.751 17.803-1.761 35.51-3.721 53.125-6.875 58.968-10.49 118.103-17.992 176.125 1.438l2.62.85 2.396.84 2.118.73L756 658c.9 2.352 1.046 3.705.66 6.2l-.597 2.487c-2.24 11.546-1.42 22.68.858 34.115 1.291 6.693 1.849 13.388 1.079 20.198l-2 2-1.762-.883C721.786 705.964 687.508 694.962 651 694l-2.84-.083c-15.968-.4-31.4.472-47.16 3.083l-2.895.472C578.372 700.816 558.25 706.702 540 715c.427 25.317 2.069 51.798 10 76l.996 3.113c1.97 5.518 4.704 9.87 9.004 13.887 2.89 1.445 5.398 1.135 8.627 1.145l2.066.01q3.402.013 6.803.013l4.765.01q5.018.009 10.035.007 5.095 0 10.192.02c36.932 1.143 36.932 1.143 72.2-8.205 3.145-1.9 5.678-3.44 8.312-6 1.411-2.86 2.344-5.842 3.313-8.875 4.44-12.882 10.577-23.87 19.687-34.125l1.895-2.145c7.464-7.95 16-12.911 26.378-16.128 6.184-1.648 12.339-2.753 18.727-1.727 2.617 1.754 3.37 3.174 5 6 3.156 10.3-.022 22.576-1.366 33.057-1.574 12.369-2.661 23.898 1.366 35.943.183 2.143.183 2.143.082 4.102l-.108 2.216-.162 2.307-.159 2.413c-1.09 14.297-6.071 25.338-13.653 37.4-7.2 11.606-12.122 22.852-13 36.562.135 7.774 2.246 14.975 4.295 22.416 5.751 20.949 5.751 20.949 3.154 31.908-1.014 2.702-2.515 4.757-4.324 6.989-2.375 1.885-4.241 2.74-7.125 3.687-6.267.644-12.831.988-18.687-1.625-2.496-1.53-3.485-2.613-5.25-5.062-2.434-7.586-2.11-13.487-.47-21.313a185 185 0 0 1 2.5-9.96c2.58-9.28 4.364-18.377 2.907-28.04-2.045-3.7-3.476-5.65-7-8-2.052.027-4.105.065-6.155.182-10.508.555-18.362-1.324-27.7-6.048-4.542-2.402-9.01-4.935-13.465-7.493-7.278-4.122-14.735-7.073-22.68-9.641l-2.363-.805c-10.187-2.888-22.277-2.089-32.45.367-6.83 2.049-16.022 5.273-21.187 10.438-6.802 1.206-13.551 1.186-20.43 1.185-2.103.002-4.204.02-6.306.04-16.72.071-32.27-2.348-47.264-10.163-9.018-5.28-15.593-12.047-21-21.062-10.62-19.658-14.656-42.871-14.367-65.062.511-12.38 3.17-24.765 5.367-36.938l-2.252-.553-2.975-.763c-.97-.245-1.94-.49-2.94-.74-3.74-1.246-6.308-3.004-9.114-5.74-4.525-5.8-6.621-12.832-8.094-19.954-1.477-10.718-.672-22.17 3.375-32.25l1.125-2.937c2.04-2.244 3.254-2.796 6.063-3.813 4.215-1.306 8.444-1.722 12.812-2.25-11.986-54.603-25.932-107.676-52.777-157.14-6.803-12.545-11.727-23.323-11.429-37.833.055-1.676.129-3.352.206-5.027 4.765-1.874 9.092-2.358 14.16-2.328l2.47.01c12.017.212 23.912 1.99 35.808 3.568l7.555.974c17.444 2.254 34.862 4.657 52.257 7.263 14.966 2.226 29.948 4.054 45.003 5.546q2.775.276 5.55.562c17.596 1.799 31.956.926 48.287-6.388 12.733-5.954 23.1-14.16 33.219-23.824 2.477-2.193 4.74-3.9 7.691-5.383"/><path d="M302 83c2.853 1.316 4.858 2.875 7.211 4.947C311 91 311 91 311.104 93.216c-.253 2.835-.653 5.614-1.104 8.425l-.455 3.203q-.49 3.42-1.007 6.835c-.912 6.053-1.742 12.117-2.585 18.18l-.518 3.687c-13.454 96.176-17.742 199.204 18.217 290.845l.95 2.42q2.303 5.87 4.664 11.72c4.252 10.62 8.605 21.756 8.136 33.395C337 474 337 474 335.062 476.688L332 479l-1.773 1.64c-7.32 6.451-16.891 10.06-26.387 12.008-7.633.945-14.383.56-21.746-1.699-2.413-1.094-3.473-1.843-5.094-3.949a194 194 0 0 1-3.5-7.562c-2.931-6.501-6.284-12.497-10.125-18.5-10.171-16.083-14.221-33.422-16.437-52.188l-.513-4.203c-1.462-12.155-2.56-24.335-3.425-36.547-3.664 14.864-6.751 29.747-9.437 44.813-2.135 11.934-4.463 23.776-7.313 35.562l-.853 3.542c-3.645 14.665-3.645 14.665-7.534 20.032-2.83 2.028-3.77 2.412-7.07 2.758q-2.302.089-4.606.106l-2.388.076c-1.933.058-3.866.088-5.799.111l-1 4c-1.759.599-1.759.599-4 1-5.75-1.724-10.205-5.525-14.312-9.75l-1.673-1.701C170.767 461.99 165.79 454.659 161 447l-1.12-1.769C144.614 420.85 136.353 392.481 134 364h-2l.11 3.563c-.005 6.142-.836 12.16-1.59 18.247-1.548 12.583-2.718 25.165-3.57 37.815l-.26 3.836a3165 3165 0 0 0-1.207 19.039l-.456 7.125-.18 3.245c-.54 8.26-1.372 17.069-5.75 24.251-.67.765-1.343 1.529-2.034 2.317-5.745 7.286-7.72 15.507-9.063 24.562-.679 4.743-1.033 9.35.741 13.903 1.305 2.747 2.736 5.415 4.185 8.09 4.137 7.725 6.102 15.547 6.449 24.32-.18 4.617-.989 8.689-3.375 12.687-2.401 2.712-5.091 4.559-8.36 6.145-4.586 1.485-8.96.662-13.64-.145-2.78-.706-4.445-1.518-7-3-2.77-2.77-4.628-5.22-6.312-8.75-1.63-7.704-.71-14.668 1.312-22.223 1.323-4.006 3.072-7.715 5.012-11.457 1.173-3.052 1.258-5.323.988-8.57-3.435-6.727-9.244-11.234-15.457-15.305a382 382 0 0 0-5.53-3.499C63.475 497.999 60.114 495.769 57 493c-5.98-11.533-4.445-25.387-4-38 2.241-44.362 9.767-87.595 23-130l.604-1.938C83.012 302.569 90.357 282.668 99 263l1.553-3.539c8.23-18.61 16.52-34.756 30.097-49.93 1.815-2.058 3.526-4.19 5.225-6.344 4.113-5.2 8.325-10.315 12.548-15.425 3.166-3.832 6.32-7.672 9.452-11.532l1.904-2.337q1.806-2.22 3.602-4.448c5.404-6.62 5.404-6.62 8.619-8.445 3.337-.92 6.546-1.19 10-1 3.9 1.95 5.59 3.384 8 7 3.984 13.97.524 30.807-1.43 44.864-5.915 42.703-11.594 85.278-7.007 128.413.443 4.267.516 8.435.437 12.723h2l.39-3.94c.53-4.74 1.383-9.359 2.36-14.025l1.08-5.28.576-2.8a2110 2110 0 0 0 10.031-52.142l.553-3.082c2.702-15.114 5.307-30.244 7.896-45.378 11.808-69 11.808-69 20.052-95.103l.656-2.167c2.094-6.335 5.389-11.388 10.38-15.846 2.214-1.756 4.472-3.415 6.776-5.05l2.504-1.808C283.365 80.64 283.365 80.64 302 83M329 867l3 1c1.192 1.556 1.192 1.556 2.348 3.586l1.318 2.29 1.397 2.499 1.47 2.6c1.501 2.668 2.985 5.345 4.467 8.025l1.312 2.341c26.857 48.107 39.759 102.803 48.313 156.784l.589 3.712c2.979 19.336 5.177 38.719 6.666 58.225.244 3.174.5 6.347.757 9.52 2.28 28.81 2.568 57.6 2.55 86.48v2.69c-.006 34.55-.868 68.953-2.988 103.443l-.619 10.214q-.203 3.375-.412 6.752c-1.238 20.356-1.388 40.646-1.057 61.034l.039 3.332q.035 3.083.113 6.165l.03 2.754.048 2.386C398 1405 398 1405 396.61 1407.24c-1.61 1.76-1.61 1.76-3.66 2.475-3.842.378-6.58.395-10.325-.715-2.625-2-2.625-2-4.5-5.062-3.384-9.647-.246-20.893 1.313-30.688 1.65-10.423 3.01-20.699 3.562-31.25h-2l-.155 2.548a355 355 0 0 1-2.152 22.126c-4.919 38.458-7.149 77.26-8.604 115.989a3108 3108 0 0 1-.264 6.738c-2.03 51.184-.81 102.607 4.175 153.599l.214 2.212c2.81 28.952 7.026 57.702 13.957 85.974l.727 2.966.646 2.563C390 1739 390 1739 390 1743q-6.72.113-13.44.165-2.278.022-4.556.061c-10.72.18-21.154-.015-30.942-5.039-3.324-2.374-5.962-4.69-8.062-8.187-3.518-8.165-4.152-16.182-4.133-24.969l-.004-2.957c-.002-3.191.005-6.383.012-9.574l.003-3.32c.013-14.359.185-28.703.622-43.055 1.44-47.574-.518-94.71-4.5-142.125l-.094 2.053q-.605 13.224-1.219 26.447l-.1 2.172a6872 6872 0 0 1-3.018 59.86c-2.305 41.707-2.305 41.707-2.569 83.468l.038 2.317c.369 17.094 2.372 35.104 8.228 51.23.78 2.605.87 4.749.734 7.453-11.184.654-19.54-.572-30-5a547 547 0 0 0-4.137-1.562l-4.113-1.563-1.953-.731c-1.63-.642-3.218-1.387-4.797-2.144-2.003-3.005-2.494-4.512-3-8a117 117 0 0 1-.161-5.44l-.029-3.275-.013-3.566-.021-3.78q-.025-6.22-.026-12.439l-.002-2.163c-.028-33.234 1.307-66.365 3.053-99.548q.272-5.197.539-10.394c.722-13.946 1.539-27.886 2.383-41.825q.392-6.466.78-12.933a59026 59026 0 0 1 2.953-48.75c2.44-40.176 2.44-40.176 3.758-57.285.85-11.164 1.573-22.336 2.302-33.508l.207-3.176.856-13.122c2.43-37.317 4.932-74.626 7.671-111.921 1.716-23.375 3.368-46.748 4.783-70.143.71-11.73 1.49-23.45 2.342-35.17 2.314-31.846 4.463-63.705 6.625-95.562l.143-2.105c3.596-52.976 7.083-105.96 9.906-158.984l.174-3.22q.156-2.923.308-5.845c.34-6.298.86-12.569 1.469-18.846M525 982c1.677.275 3.345.614 5 1 5.03 5.21 7.734 12.452 10.25 19.125l1.143 2.988c20.874 55.55 34.066 114.528 46.63 172.408a1680 1680 0 0 0 2.454 11.08c8.146 36.333 14.98 72.953 20.898 109.711l.477 2.936c1.115 6.908 2.15 13.826 3.148 20.752l.535 3.623c2.865 19.687 4.062 38.959 4.087 58.84.01 6.107.051 12.212.105 18.318.005.669.01 1.338.017 2.027.228 23.912 2.208 47.724 4.631 71.505l.657 6.576a3035 3035 0 0 0 4.393 41.09c.882 7.748 1.902 15.45 3.189 23.141.576 4.301.562 8.551.386 12.88h2c-.01-.647-.02-1.295-.032-1.962-.318-22.854.927-43.212 8.032-65.038h2l.332 3.84.48 5.098.213 2.517c.655 6.733 1.822 13.355 5.663 19.045 2.653 1.721 5.007 2.357 8.16 2.598 3.724-.17 6.963-1.176 10.152-3.098 12.205-11.008 19.434-28.311 24.813-43.562 4.477-14.296 6.999-28.857 4.437-43.813-2.194-9.2-6.522-16.622-12.992-23.469-5.316-5.028-11.473-8.46-18.258-11.156a90 90 0 0 0-6-1l.621 3.77c5.788 35.547 5.788 35.547.129 50.543-2.195 3.37-4.435 5.412-7.75 7.687-2.875 1.063-2.875 1.063-6 1-2.944-.959-5.47-2.214-8-4-2.037-2.694-2.935-4.805-4-8-.603-7.75.527-14.86 2.313-22.375l.69-3.04c.653-2.864 1.322-5.725 1.997-8.585l.515-2.188.45-1.91c2.558-10.882 5.04-22.545 1.972-33.59-1.232-3.673-2.748-7.193-4.296-10.743-9.419-21.864-13.508-45.673-18.524-68.839-6.007-27.739-13.42-55.086-21.113-82.398C583.288 1154.43 583.288 1154.43 579 1129l-.444-2.53c-3.287-19.128-5.074-39.297.178-58.2 1.863-4.813 4.401-8.973 7.266-13.27 3.799.291 6.458.662 9.719 2.695 7.618 6.656 14.853 13.68 22.031 20.805l1.483 1.466c5.968 5.919 11.557 12.022 16.81 18.591 2.019 2.52 4.115 4.95 6.251 7.37 8.145 9.25 15.458 19.114 22.706 29.073l1.806 2.478c11.912 16.438 22.491 33.64 32.319 51.397l1.325 2.393c11.898 21.851 20.1 46.06 19.765 71.056-.18 5.573-1.135 10.494-3.215 15.676l-1.031 2.602c-2.772 6.2-6.534 11.26-11.969 15.398-2.246.715-2.246.715-4 1l1.25-3.625c5.793-17.38 9.01-33.45 5.624-51.701-.83-3.929-1.805-7.804-2.874-11.674l-.569-2.094c-7.49-26.425-24.452-49.599-42.431-69.906l-2.625-2.996c-4.83-5.425-9.773-10.388-15.375-15.004l-2.484-2.145c-8.048-6.826-16.622-13.018-26.516-16.855 3.83 29.108 3.83 29.108 9 58l.627 3.083c8.37 40.581 20.685 81.287 40.373 117.917l1.09 2.03c7.263 13.424 15.55 25.901 24.91 37.97l1.211 1.613c4.78 6.347 9.007 11.076 16.414 14.282 5.27 2.452 8.864 6.166 12.402 10.707C730.191 1381.7 734.16 1400.269 737 1418l.355 2.185c3.467 22.237 1.29 44.231-1.863 66.386-1.321 9.361-2.122 18.683-2.617 28.117l-.125 2.34c-.667 12.818-.982 25.635-1.048 38.47q-.015 2.838-.043 5.677c-.102 11.388.589 21.722 3.341 32.825q.586 2.56 1.168 5.121a697 697 0 0 0 1.557 6.51c1.142 4.916 1.53 9.317 1.275 14.369-1.187 3.813-1.187 3.813-3 7-2.25 1.938-2.25 1.938-5 3-3.702.397-6.25.273-9.75-1-2.488-2.212-3.548-4.207-4.657-7.325-1.31-5.911-.811-12.089-.655-18.112.35-12.415.35-12.415-1.938-24.563-1.73-3.113-3.431-5.431-5.937-7.937-2.018-1.236-2.018-1.236-4.372-1.083-2.658.776-2.658.776-3.95 2.397-1.359 1.92-2.62 3.879-3.866 5.873-3.68 5.628-7.49 10.961-11.875 16.063l-1.383 1.612A330 330 0 0 1 679 1600l-1.516 1.75c-3.182 2.68-7.506 3.347-11.484 4.25-4.433.554-7.821-.084-12-1.5-4.6-1.984-7.55-4.494-10.66-8.395-1.907-2.996-2.687-5.625-3.34-9.105h-2l.519 2.044q1.181 4.665 2.356 9.331l.816 3.215c6.009 23.887 6.009 23.887 4.309 35.41-1.938 2.897-4.033 4.278-7 6-1.165 1.964-1.165 1.964-1.02 4.258.552 7.638 2.103 14.713 4.082 22.078 1.973 7.71 3.255 16.057 1.407 23.926-.719 1.863-.719 1.863-2.469 4.738-2.136 1.358-3.741 1.966-6.254 2.3l-2.308.013-2.317.05C628 1700 628 1700 626.297 1698.7c-2.212-2.898-2.768-6.173-3.297-9.699-.61-6.482.193-12.466 1.5-18.812 1.994-9.857 2.262-19.013.23-28.926-2.37-12.078-4.018-24.273-5.793-36.45l-.867-5.911a13645 13645 0 0 1-6.498-44.786l-1.041-7.239-.343-2.386-.682-4.733q-1.005-6.983-1.997-13.97a6053 6053 0 0 0-1.247-8.694 1837 1837 0 0 1-.578-4.066q-.393-2.775-.795-5.548l-.45-3.15L604 1502l-1-1c-4.422 36.008 1.14 73.98 4.098 109.926 2.081 25.385 2.081 25.385 2.09 35.574l.037 2.547c.02 8.956.02 8.956-2.225 12.953-2.685 1.49-4.888 2.481-7.75 3.438l-2.133.81c-3.407 1.213-5.842 1.765-9.496 1.588L585 1667c-5.315-6.834-6.547-15.546-7.726-23.929-1.937-14.65-3.12-29.291-4.037-44.036-.408-6.51-.847-13.019-1.28-19.527l-1.145-17.39c-1.268-19.47-3.524-38.537-6.653-57.799-6.353-39.208-9.287-78.854-12.581-118.414-.524-6.28-1.063-12.557-1.605-18.835-4.971-57.764-8.741-115.626-12.54-173.476q-.615-9.364-1.238-18.727a18177 18177 0 0 1-6.932-109.515q-.27-4.473-.542-8.946-.856-14.12-1.7-28.241-.268-4.497-.54-8.994-.378-6.254-.747-12.507l-.226-3.71c-.409-6.994-.602-13.948-.508-20.954M393 63c2.402-.116 4.775-.168 7.178-.177l2.277-.02a1905 1905 0 0 1 7.494-.041l2.582-.013q6.77-.03 13.54-.044c4.66-.011 9.319-.046 13.978-.085 3.584-.027 7.167-.035 10.75-.038q2.577-.008 5.152-.035a555 555 0 0 1 7.224-.017l2.14-.039c3.713.04 5.788.567 9.055 2.404 8.127 6.505 12.91 17.156 16.638 26.68C493.817 99 496.42 106.493 499 114l.976 2.78c17.185 49.21 26.967 101.364 37.74 152.262 2.618 12.35 5.318 24.671 8.256 36.95 2.21 9.37 3.765 18.816 5.098 28.348l.462 3.285q.732 5.283 1.46 10.566c2.034 14.671 4.354 29.124 7.926 43.504 1.454 5.885 2.286 11.037 2.05 17.098-.06 2.493-.06 2.493 1.095 5.894.937 3.313.937 3.313.875 6.625-1.699 6.68-4.55 12.538-9.25 17.625-2.942 2.688-5.776 4.509-9.59 5.692-3.87.684-7.306.338-11.098-.629-3.098-1.157-6.052-2.504-9-4l-2-1c-.91-1.923-1.731-3.888-2.512-5.867l-.743-1.862q-.801-2.01-1.596-4.026c-1.43-3.626-2.885-7.242-4.34-10.858l-.925-2.3c-3.541-8.77-7.267-17.462-11.009-26.15l-.98-2.274q-2.188-5.084-4.384-10.163-2.264-5.246-4.511-10.5c-2.396.588-2.396.588-5 2-3.778 4.75-5.49 9.345-6.625 15.25-1.136 11.357.547 21.887 3.813 32.813 1.869 7.255 1.726 15.727-.25 22.937-1.26 3.248-2.896 5.2-5.5 7.5-1.79 1.385-3.414 2.488-5.438 3.5-3.373.268-5.756.085-8.965-1.031-6.779-3.35-11.745-6.673-16.035-12.969-1.943-3.21-2.188-6.06-2.375-9.75.138-5.494 1.666-9.515 4.375-14.25a269 269 0 0 1 5.414-8.227c2.615-4.572 3.68-8.945 3.781-14.175a333 333 0 0 0-.07-4.536l-.027-2.36c-.024-1.901-.06-3.802-.098-5.702l-2.062 2.875c-1.16 1.617-1.16 1.617-2.938 3.125-5.977 2.342-11.823 2.342-18.184 2.414l-3.198.059c-3.352.06-6.704.106-10.055.152q-3.422.057-6.842.117-8.36.143-16.721.258l-.807 2.013C385.885 420.038 385.885 420.038 375 430c-4.686 1.562-9.404 1.226-14.312 1.25-1.55.03-1.55.03-3.131.063-4.504.023-7.907-.063-12.147-1.692-2.914-1.96-4.548-3.629-6.41-6.621-1.743-4.98-2.351-9.087-1.625-14.309 1.117-4.81 2.855-9.418 4.566-14.043 1.1-3.79 1.376-6.725 1.059-10.648-.91-1.659-1.83-3.315-2.848-4.91-4.62-8.38-6.464-17.962-6.375-27.426.29-3.467 1.248-5.811 3.223-8.664l3-2c2.688.375 2.688.375 5 1l-.48-3.754c-2.463-22.508.343-45.203 2.7-67.59.562-5.37 1.054-10.74 1.467-16.125 1.422-18.062 4.254-35.542 7.728-53.298 1.383-7.095 2.674-14.204 3.948-21.319C376.535 89.881 376.535 89.881 392 64zM453 859h3c27.529 83.817 25.98 180.714 34.096 337.048q.946 19.07 1.904 38.14l.19 3.788c1.695 33.794 3.592 67.55 6.337 101.277l.304 3.737q.272 3.325.56 6.648c.513 6.138.716 12.203.609 18.362h2l-.16-2.334a2387 2387 0 0 1-3.248-58.801q-.19-4.356-.382-8.71c-.882-20.02-1.718-40.04-2.478-60.065a10136 10136 0 0 0-1.204-30.683c-1.294-31.671-2.323-63.345-3.153-95.032l-.099-3.742c-.907-34.588-1.575-69.167-1.587-103.768q-.002-4.134-.012-8.269c-.083-55.379-.083-55.379 3.323-65.596h2c2.434 6.694 4.074 13.39 5.438 20.375l.648 3.303c8.316 43.316 11.27 87.502 15.127 131.382 6.544 79.618 6.544 79.618 15.787 158.94 6.588 47.251 11.01 94.618 15.181 142.132a7333 7333 0 0 0 10.924 114.407l.22 2.124c.371 3.578.768 7.151 1.204 10.722 1.23 10.196 1.851 20.314 2.19 30.576.724 21.243 2.103 42.431 3.614 63.63q.248 3.476.493 6.953c1.07 15.067 2.152 30.133 3.563 45.173 1.889 20.554 1.889 20.554-.534 27.623-1.855 2.66-1.855 2.66-4.507 3.93L561 1693l-1.997.439c-2.182.458-4.37.86-6.566 1.248l-2.248.432-2.193.393-1.963.358c-2.485.159-4.62-.301-7.033-.87-3.3-61.75-5.508-123.54-7.493-185.344q-.512-15.975-1.07-31.949c-.772-22.266-1.452-44.531-1.968-66.805l-.068-2.91c-.222-9.604-.44-19.208-.645-28.812q-.116-5.364-.236-10.728l-.105-4.98c-.206-10.185-.64-20.313-1.415-30.472-1.28 32.37-2.281 64.74-3.062 97.125l-.065 2.674a8360 8360 0 0 0-1.32 63.66c-1.562 93.803-1.562 93.803-6.553 122.541h-2c-17.436-57.326-28.08-116.407-34-176l-.247-2.49c-4.98-50.611-6.829-101.422-8.66-152.224l-.36-9.858q-.122-3.386-.239-6.77c-.273-7.58-.69-15.114-1.494-22.658-.077 14.171.146 28.316.55 42.48l.178 6.378q.286 10.165.584 20.33l.102 3.496c.983 33.81 2.122 67.583 4.22 101.345.312 5.034.599 10.069.877 15.104 2.401 43.307 6.326 86.479 11.925 129.49.518 3.993 1.005 7.989 1.486 11.986 3.911 31.822 10.098 63.36 16.552 94.752l.492 2.405q.448 2.19.905 4.378c2.188 10.677 3.796 21.765.317 32.32-1.887 4.027-4.62 7.355-7.31 10.876-2.62 3.71-4.183 7.168-4.878 11.66-.25 6.324 1.91 11.66 4.129 17.488 1.064 3.067 1.482 5.305.871 8.512-1.375 2.75-1.375 2.75-4 5-3.307 1.177-6.497 1.796-10 2-3.062-.812-3.062-.812-5-2l-1-1c-.416-6.33-.243-12.526 1-18.75 1.55-7.102 1.55-7.102 1-14.25-1.283-1.74-1.283-1.74-3-3.375-10.484-10.717-14.329-29.491-18-43.625-3.358-14.02-3.244-27.603-2.645-41.953.42-10.243.74-20.47.73-30.723 0-1.285 0-2.57-.002-3.893-.05-23.317-.511-46.632-.89-69.945l-.17-10.522c-.715-44.74-1.62-89.472-2.773-134.202-.415-16.096-.802-32.193-1.188-48.29l-.186-7.742q-.765-31.765-1.411-63.535l-.067-3.309q-.327-16.07-.642-32.14l-.349-17.662c-.209-10.49-.45-20.977-.778-31.464-1.74-55.89-1.797-111.825-1.758-167.736q.006-10.376-.003-20.753-.007-11.538-.002-23.077.001-4.778-.002-9.554c-.012-16.331.117-32.647.6-48.973l.062-2.136a638 638 0 0 1 1.974-34.578l.395-4.995a5658 5658 0 0 1 .56-6.95c.366-4.322.895-8.583 1.545-12.868"/><path d="M399.063 764.73c3.289.458 5.18 1.374 7.937 3.27 7.131 6.15 11.037 13.967 14.218 22.66 2.546 7.622 4.188 15.474 5.782 23.34l.452 2.127c5.595 26.726 7.678 56.847 5.07 83.99-2.64 28.308-1.677 57.07-1.652 85.46q.006 9.568-.004 19.135c-.052 67.467 1.254 134.909 2.82 202.355l.193 8.335c1.94 84.006 4.35 168.001 11.98 336.884q.207 3.975.41 7.949c3.314 85.684 3.314 85.684 14.308 170.53.564 2.98.959 5.22.423 8.235-1.348 1.979-2.836 3.81-4.336 5.676-4.041 5.644-6.688 12.36-7.476 19.262-.213 3.729-.179 7.442-.13 11.175l.03 2.803q.036 2.78.124 5.56c.072 4.126.002 7.67-1.532 11.54C446 1798 446 1798 443 1800c-5.326.451-9.268-.145-14.238-2.05-2.001-1.079-3.28-2.232-4.762-3.95-2.234-4.939-2.416-9.673-2-15l.493-1.895c1.8-7.483 1.249-16.42-.259-23.91-2.594-8.058-6.848-14.27-11.859-20.953-4.953-6.65-8.072-13.388-9.156-21.648-.874-14.362 1.235-28.57 3.163-42.766a594 594 0 0 0 3.238-30.564l.198-2.463c1.364-17.4 1.552-34.714 1.41-52.158-.03-4.242-.042-8.485-.057-12.727q-.04-10.663-.108-21.327c-.059-9.366-.097-18.732-.128-28.098-.068-20.367-.175-40.735-.294-61.102l-.048-8.208c-.318-55.246-.774-110.49-1.438-165.733q-.091-7.572-.178-15.146a7121 7121 0 0 0-2.618-127.898c-.35-11.933-.662-23.867-.958-35.801C401.138 1015.884 398.558 925.045 387 768c4.36-2.243 7.198-3.518 12.063-3.27M153 1055h2c-.575 3.648-1.543 6.338-3.406 9.52l-1.491 2.573c-.53.897-1.058 1.795-1.603 2.72q-1.65 2.843-3.297 5.687l-1.65 2.832c-5.01 8.606-9.922 17.248-14.362 26.164l-1.04 2.087c-3.63 7.324-7.084 14.725-10.464 22.167l-.97 2.133C90.102 1189.575 71.795 1252.001 64 1316l-.458 3.64c-9.208 75.764.866 154.632 30.802 224.931q1.242 2.88 2.493 5.753a651 651 0 0 1 3.151 7.399c4.788 11.263 10.47 21.981 16.508 32.621q1.453 2.565 2.875 5.144c10.65 19.28 25.874 33.41 44.527 44.973 23.224 13.846 48.844 20.405 74.937 26.424q3.938.909 7.872 1.834 3.77.886 7.547 1.745c6.44 1.518 11.999 3.234 17.746 6.536l1 1c1.66 11.453 3.015 23.431 2 35l-2 2c-2.602-.023-2.602-.023-5.625-.375l-3.04-.336L262 1714c-1.668 8.026-2.193 15.76-2.187 23.938l-.002 2.725c.037 4.574.396 8.825 1.189 13.337.14 2.66.23 5.278.25 7.938l.063 2.052c.04 5.158-.966 8.524-3.313 13.01-2.609 2.115-4.73 2.92-7.937 3.875-3.063.125-3.063.125-6.188-.75-2.933-2.168-3.692-3.237-5.187-6.437-2.28-5.51-2.818-10.895-2.715-16.82l.037-3.442q.053-3.562.117-7.125l.033-3.434.051-3.121c-.213-2.776-.781-4.388-2.211-6.746-2.225-.401-2.225-.401-5 0a68 68 0 0 0-6.5 4.75l-1.684 1.344a332 332 0 0 0-7.511 6.195C211 1747 211 1747 207.625 1747.625c-3.357-.579-4.482-.867-7.062-2.812-4.447-4.25-7.334-9.542-10.4-14.82-9.412-17.844-9.412-17.844-23.163-31.993-3.258-.901-5.435-1.115-8.75-.437-2.44 1.296-2.44 1.296-3.562 3.937-1.139 5.795-.885 11.332-.352 17.2 1.033 11.538 1.033 11.538-.399 16.05-1.937 3.25-1.937 3.25-4.562 5.188-4.162 1.31-7.996 2.18-12.375 2.062-3.375-1.062-3.375-1.062-6-3-2.534-3.933-3.417-7.405-4-12a239 239 0 0 1 .215-9.99c.085-4.02-.246-7.576-1.977-11.244-1.579-2.252-3.44-3.79-5.55-5.551-5.045-4.246-7.747-8.818-10.688-14.652l-1.539-2.94a873 873 0 0 1-3.05-5.889 363 363 0 0 0-3.79-7.14c-38.217-70.308-62.495-148.509-71.308-227.969l-.363-3.236c-1.745-16.706-2.16-33.478-2.137-50.264l.002-2.68C26.977 1314.385 42.21 1244.937 71 1180l.938-2.157c17.07-39.205 41.591-76.474 69.48-108.816 3.368-3.948 6.59-8.003 9.805-12.078zM539 715c.105 1.208.21 2.417.32 3.662.4 4.574.811 9.147 1.224 13.72q.265 2.945.52 5.889c2.46 32.352 2.46 32.352 12.936 62.729 2.263 3.178 4.467 6.233 8 8 2.207.102 4.417.138 6.627.145l2.066.01q3.402.013 6.803.013l4.765.01q5.018.009 10.035.007 5.095 0 10.192.02c36.932 1.143 36.932 1.143 72.2-8.205 3.145-1.9 5.678-3.44 8.312-6 1.411-2.86 2.344-5.842 3.313-8.875 4.44-12.882 10.577-23.87 19.687-34.125l1.895-2.145c7.464-7.95 16-12.911 26.378-16.128 6.184-1.648 12.339-2.753 18.727-1.727 2.617 1.754 3.37 3.174 5 6 3.156 10.3-.022 22.576-1.366 33.057-1.574 12.369-2.661 23.898 1.366 35.943.183 2.143.183 2.143.082 4.102l-.108 2.216-.162 2.307-.159 2.413c-1.09 14.297-6.071 25.338-13.653 37.4-7.2 11.606-12.122 22.852-13 36.562.135 7.774 2.246 14.975 4.295 22.416 5.751 20.949 5.751 20.949 3.154 31.908-1.014 2.702-2.515 4.757-4.324 6.989-2.375 1.885-4.241 2.74-7.125 3.687-6.267.644-12.831.988-18.687-1.625-2.496-1.53-3.485-2.613-5.25-5.062-2.434-7.586-2.11-13.487-.47-21.313a185 185 0 0 1 2.5-9.96c2.58-9.28 4.364-18.377 2.907-28.04-2.045-3.7-3.476-5.65-7-8-2.052.027-4.105.065-6.155.182-10.508.555-18.362-1.324-27.7-6.048-4.542-2.402-9.01-4.935-13.465-7.493-7.278-4.122-14.735-7.073-22.68-9.641l-2.363-.805c-10.187-2.888-22.277-2.089-32.45.367-6.83 2.049-16.022 5.273-21.187 10.438-6.802 1.206-13.551 1.186-20.43 1.185-2.103.002-4.204.02-6.306.04-16.72.071-32.27-2.348-47.264-10.163-9.018-5.28-15.593-12.047-21-21.062-10.62-19.658-14.656-42.871-14.367-65.062.511-12.38 3.17-24.765 5.367-36.938 6.18-2.358 12.41-4.534 18.676-6.652l3.048-1.035q4.794-1.627 9.589-3.25 6.306-2.137 12.613-4.278l2.867-.97a565 565 0 0 0 16.995-6.073C537 715 537 715 539 715"/><path fill="#666566" d="m747.25 654.563 2.62.85 2.396.84 2.118.73L756 658c.9 2.352 1.046 3.705.66 6.2l-.597 2.487c-2.24 11.546-1.42 22.68.858 34.115 1.291 6.693 1.849 13.388 1.079 20.198l-2 2-1.762-.883C721.786 705.964 687.508 694.962 651 694c-1.405-.04-1.405-.04-2.84-.083-15.968-.4-31.4.472-47.16 3.083l-2.895.472c-22.461 3.807-43.76 11.625-64.96 19.763-11.037 4.19-22.22 7.96-33.395 11.765l-3.017 1.029q-4.28 1.457-8.561 2.909l-2.623.892-2.437.822-2.122.719c-5.08 1.606-9.667 2.226-14.99 1.629-4.083-1.115-7.505-2.747-10.758-5.473-4.908-5.216-7.167-11.444-8.965-18.273-2.07-10.102-1.703-20.999 1.098-30.942A115 115 0 0 1 449 678l1.125-2.937c2.035-2.239 3.036-2.645 5.846-3.569 5.056-1.6 10.143-2.581 15.365-3.467l2.909-.51c3.042-.533 6.086-1.057 9.13-1.58q3.051-.53 6.102-1.064a6707 6707 0 0 1 13.886-2.408c2.772-.489 5.537-1.008 8.304-1.526 4.425-.808 8.792-1.379 13.27-1.798l4.404-.433 2.296-.225c13.28-1.312 26.416-3 39.55-5.358 58.94-10.512 118.068-17.983 176.063 1.438"/><path fill="#FEFEFE" d="M251 577c3.762 0 6.541.192 9.848 2.023 2.138 1.571 4.138 3.25 6.152 4.977q1.572 1.3 3.148 2.598c3.327 2.753 6.596 5.567 9.852 8.402l2.074 1.773c5.884 5.404 9.847 12.432 13.926 19.227l1.616 2.668c4.361 7.318 8.185 14.789 11.759 22.52l.84 1.814C320.665 665.674 331.639 691.449 330 717c-.996 8.472-2.9 17.092-7.5 24.375-1.736 2.315-3.565 4.473-5.5 6.625l-1.926 2.207c-6.452 6.938-14.05 11.88-22.074 16.793l-1.95 1.22c-5.962 3.68-11.737 7.242-18.925 7.467A93 93 0 0 1 266 775l-1.961-.265c-14.836-2.068-30.043-5.529-42.39-14.43-7.448-6.22-11.066-12.722-14.536-21.73-10.166-32.64.513-71.85 6.04-104.577 2.358-14.015 4.06-27.852 4.661-42.067C218 590 218 590 219 588l3 1c1.133 2.695 1.133 2.695 2.125 6.125l1.008 3.383c1.572 6.33 2.06 12.442 2.054 18.93l.002 2.372c-.046 5.216-.458 10.278-1.189 15.44-1.573 11.405-2.338 22.844 2 33.75 4.052 7.204 10.016 11.777 17 16l2.05 1.254c1.914.902 1.914.902 3.93.531 6.52-2.534 12.123-7.152 16.512-12.531 3.35-5.009 5.112-10.208 5.887-16.168.32-7.85-1.32-14.878-4.379-22.086a245 245 0 0 0-2.994-5.038c-5.229-8.497-8.467-17.386-11.506-26.837l-.665-2.035c-5.321-16.412-5.321-16.412-4.835-23.09zM369 1065h3c3.113 5.655 4.798 10.434 5.625 16.813l.354 2.594c2.582 19.913 3.268 39.465 2.336 59.512-.29 6.284-.515 12.568-.73 18.854C373.868 1328.18 373.868 1328.18 346 1373c-3.808 5.623-8.18 11.326-14 15h-3c.586-36.256 1.563-72.492 2.737-108.733q.375-11.648.745-23.294l.068-2.137.602-18.963q1.02-31.957 1.916-63.916c.558-19.885 1.162-39.767 1.864-59.647q.129-3.623.253-7.245.17-4.888.35-9.776l.098-2.87c.186-4.873.49-9.618 1.367-14.419l1-1c2.813-.375 2.813-.375 6 0 2.973 2.633 4.338 5.529 5.688 9.188 1.488 4.941 2.074 9.668 2.312 14.812l.23 3.676c.487 11.266-1.8 21.313-4.68 32.155-1.765 6.957-2.661 14.495-.984 21.552.953 2.704 1.977 5.083 3.852 7.273 1.656 1.576 1.656 1.576 4.582 2.344 4.221.277 7.246.213 11.313-.937 2.7-1.786 2.7-1.786 3.722-3.95 2.001-5.333 2.48-10.44 1.965-16.113-.938-4.942-2.146-9.812-3.375-14.687-3.603-14.466-5.98-28.25-5.937-43.188l-.05-3.508c-.004-7.553.979-12.851 4.362-19.617"/><path d="M405 469c2.594 1.255 5.032 2.6 7.441 4.18l1.987 1.295 2.135 1.4A1382 1382 0 0 0 435 487.688c8.528 5.37 17.02 10.795 25.505 16.233a7019 7019 0 0 0 21.183 13.517A4355 4355 0 0 1 506 533c-1.388 3.806-3.192 6.972-5.375 10.375-6.49 11.102-8.356 22.895-8.668 35.559-.062 16.56 2.253 31.024 9.606 45.879l3.238 6.656L508 638q2.64 5.399 5.25 10.813l1.158 2.348C516.135 654.75 517 656.95 517 661q-9.53 1.714-19.061 3.418-3.244.58-6.487 1.164-4.657.837-9.315 1.668l-2.936.53-2.73.486-2.402.43C472 669 472 669 469 669l-.775-3.531c-11.76-53.402-25.754-105.245-52.002-153.61-6.803-12.544-11.727-23.322-11.429-37.832.055-1.676.129-3.352.206-5.027"/><path fill="#FEFEFE" d="M430 172h2q4.075 11.424 8.139 22.852 1.89 5.312 3.783 10.622c5.154 14.452 10.269 28.914 15.144 43.464l1.103 3.273c6.11 18.392 9.926 36.625 6.577 56.004C466 311 466 311 463.875 314L461 316c-.579.425-1.158.85-1.754 1.29-6.017 4.157-12.148 6.248-19.398 7.065-10.99.466-21.076-2.342-31.043-6.777-3.204-1.737-5.9-3.307-8.035-6.305-3.404-7.254-3.007-15.356-2.38-23.136 2.491-23.787 11.101-47.42 17.782-70.297q1.698-5.827 3.387-11.656 2.06-7.093 4.128-14.184l.795-2.727q1.106-3.795 2.217-7.585l.665-2.283c1.521-5.175 1.521-5.175 2.636-7.405M669 212c1.804.698 1.804.698 4 2 1.596 2.164 1.596 2.164 3.137 4.84l1.736 2.957 1.814 3.14c7.87 13.265 16.523 24.457 28.313 34.5 5.455 4.701 11.011 9.92 14 16.563a64 64 0 0 1 1.035 4.273l.514 2.478c3.115 15.908 4.817 30.152-.397 45.792-2.251 5.04-5.734 9.166-10.152 12.457-6.359 3.233-12.895 5.399-20.078 5.27-19.24-1.775-37.908-10.834-53.922-21.27-2.485-2.128-4.264-4.242-6-7l-1.344-1.895c-3.73-5.498-6.159-11.077-6.976-17.699-.407-9.426 2.57-17.089 6.824-25.367q1.425-2.682 2.871-5.351l1.388-2.57c2.939-5.262 6.168-9.67 10.237-14.118l4 1c.408 14.183-.267 26.557-5.75 39.875-2.057 5.098-2.057 5.098-2.312 10.5 1.203 4.106 2.231 7.413 5.062 10.625 3.864 3.21 7.873 6.139 12 9 6.856-2.57 12.379-6.172 17.375-11.562 2.54-3.812 3.533-6.533 4-11.125-.167-5.93-2.671-11.323-5.574-16.417-3.73-6.776-4.871-12.866-5.551-20.521l-.35-3.465c-.326-3.302-.621-6.604-.9-9.91l-.218-2.564c-.903-11.103-1.655-22.405.218-33.436zM140 1180h2c-.887 9.827-1.814 19.641-3.01 29.436-5.85 48.208-8.154 96.377-8.235 144.908q-.008 3.808-.021 7.617c-.051 17.997.197 35.944 1.157 53.918l.117 2.263c.504 9.44 1.37 18.788 2.557 28.167 1.23 10.44 1.23 10.44.435 13.691-1.836 1.727-1.836 1.727-4 3-3 .5-3 .5-6 0-4.76-5.052-6.139-10.733-8.062-17.25l-1.026-3.2c-6.304-21.095-6.457-43.342-6.35-65.175l.009-3.921c.078-24.962 1.529-49.662 4.429-74.454l.286-2.457c4.672-39.69 13.684-78.453 25.714-116.543M570 1255h2c36.18 110.803 36.18 110.803 27 155-1.361 4.246-3.246 7.81-5.625 11.563-2.648 1.602-4.067 1.783-7.125 1.937-4.377-.194-7.77-1.054-11.566-3.246-2.769-2.062-4.123-4.19-5.684-7.254-3.054-7.662-4.155-14.948-4.203-23.191l-.021-2.425c-.017-2.649-.023-5.298-.026-7.947l-.005-2.804c-.002-15.052.706-29.971 1.834-44.977 1.286-17.145 2.032-34.285 2.609-51.468l.128-3.83q.357-10.678.684-21.358"/></svg>